<?xml version="1.0" encoding="UTF-8"?>
<!DOCTYPE svg PUBLIC "-//W3C//DTD SVG 1.1//EN" "http://www.w3.org/Graphics/SVG/1.1/DTD/svg11.dtd">
<svg xmlns="http://www.w3.org/2000/svg" version="1.1" width="1500px" height="500px" style="shape-rendering:geometricPrecision; text-rendering:geometricPrecision; image-rendering:optimizeQuality; fill-rule:evenodd; clip-rule:evenodd" xmlns:xlink="http://www.w3.org/1999/xlink">
<g><path style="opacity:0.993" fill="#3d2b99" d="M -0.5,-0.5 C 499.5,-0.5 999.5,-0.5 1499.5,-0.5C 1499.5,157.833 1499.5,316.167 1499.5,474.5C 1328.5,474.5 1157.5,474.5 986.5,474.5C 986.5,468.833 986.5,463.167 986.5,457.5C 1152.17,457.5 1317.83,457.5 1483.5,457.5C 1483.5,310.167 1483.5,162.833 1483.5,15.5C 994.167,15.5 504.833,15.5 15.5,15.5C 15.5,162.833 15.5,310.167 15.5,457.5C 49.8333,457.5 84.1667,457.5 118.5,457.5C 118.5,463.167 118.5,468.833 118.5,474.5C 78.8333,474.5 39.1667,474.5 -0.5,474.5C -0.5,316.167 -0.5,157.833 -0.5,-0.5 Z M 295.5,217.5 C 306.047,216.849 312.88,221.516 316,231.5C 316.499,236.489 316.666,241.489 316.5,246.5C 305.162,246.667 293.828,246.5 282.5,246C 283.116,237.253 285.616,229.087 290,221.5C 291.812,220.023 293.645,218.69 295.5,217.5 Z M 1330.5,217.5 C 1342.64,215.817 1350.47,220.817 1354,232.5C 1355.05,246.279 1354.39,259.946 1352,273.5C 1345.1,287.805 1335.44,290.139 1323,280.5C 1314.39,261.51 1314.39,242.51 1323,223.5C 1325.11,220.879 1327.61,218.879 1330.5,217.5 Z M 1165.5,251.5 C 1166.66,259.323 1166.82,267.323 1166,275.5C 1159.24,285.239 1150.74,287.072 1140.5,281C 1135.55,273.603 1135.39,266.103 1140,258.5C 1141.83,257.333 1143.67,256.167 1145.5,255C 1152.25,253.502 1158.92,252.335 1165.5,251.5 Z M 218.5,452.5 C 224.789,452.11 228.455,455.11 229.5,461.5C 224.198,462.663 218.864,462.829 213.5,462C 214.253,458.327 215.92,455.16 218.5,452.5 Z M 361.5,452.5 C 367.878,452.48 371.211,455.814 371.5,462.5C 366.5,462.5 361.5,462.5 356.5,462.5C 356.61,458.28 358.277,454.946 361.5,452.5 Z M 481.5,452.5 C 487.91,452.599 491.244,455.933 491.5,462.5C 486.5,462.5 481.5,462.5 476.5,462.5C 476.61,458.28 478.277,454.946 481.5,452.5 Z"/></g>
<g><path style="opacity:0.964" fill="#3d2b9a" d="M 544.5,161.5 C 554.886,160.543 564.553,162.71 573.5,168C 581.144,175.273 581.478,182.94 574.5,191C 565.62,195.08 560.287,192.414 558.5,183C 559.205,178.425 561.539,174.925 565.5,172.5C 564.573,169.53 562.573,167.697 559.5,167C 546.581,163.04 538.415,167.54 535,180.5C 533.234,191.815 533.067,203.149 534.5,214.5C 540.5,214.5 546.5,214.5 552.5,214.5C 552.5,216.167 552.5,217.833 552.5,219.5C 546.5,219.5 540.5,219.5 534.5,219.5C 534.311,241.516 534.811,263.516 536,285.5C 537.171,286.893 538.671,287.727 540.5,288C 543.817,288.498 547.15,288.665 550.5,288.5C 550.5,289.833 550.5,291.167 550.5,292.5C 533.5,292.5 516.5,292.5 499.5,292.5C 499.5,291.167 499.5,289.833 499.5,288.5C 505.572,289.223 511.072,287.889 516,284.5C 516.211,262.81 516.711,241.143 517.5,219.5C 511.833,219.5 506.167,219.5 500.5,219.5C 500.5,217.833 500.5,216.167 500.5,214.5C 506.167,214.5 511.833,214.5 517.5,214.5C 516.321,201.691 518.154,189.357 523,177.5C 527.613,168.622 534.779,163.289 544.5,161.5 Z"/></g>
<g><path style="opacity:0.977" fill="#3d2b99" d="M 1369.5,164.5 C 1370.5,164.5 1371.5,164.5 1372.5,164.5C 1371.58,203.497 1371.42,242.497 1372,281.5C 1372.24,283.764 1372.74,285.931 1373.5,288C 1376.39,289.149 1379.39,289.649 1382.5,289.5C 1382.5,290.833 1382.5,292.167 1382.5,293.5C 1373.82,293.464 1365.15,293.797 1356.5,294.5C 1356.66,290.418 1356.16,286.418 1355,282.5C 1342.94,294.778 1329.11,297.278 1313.5,290C 1301.55,281.27 1295.55,269.437 1295.5,254.5C 1297.61,224.202 1313.61,210.369 1343.5,213C 1347.79,214.396 1351.29,216.896 1354,220.5C 1354.83,205.156 1354.67,189.822 1353.5,174.5C 1349.27,173.139 1344.93,172.139 1340.5,171.5C 1341.15,169.568 1342.48,168.401 1344.5,168C 1349.5,167.667 1354.5,167.333 1359.5,167C 1363.09,166.689 1366.42,165.856 1369.5,164.5 Z M 1330.5,217.5 C 1327.61,218.879 1325.11,220.879 1323,223.5C 1314.39,242.51 1314.39,261.51 1323,280.5C 1335.44,290.139 1345.1,287.805 1352,273.5C 1354.39,259.946 1355.05,246.279 1354,232.5C 1350.47,220.817 1342.64,215.817 1330.5,217.5 Z"/></g>
<g><path style="opacity:0.969" fill="#3d2b9a" d="M 453.5,167.5 C 468.689,167.515 473.023,174.348 466.5,188C 453.396,193.711 446.896,189.544 447,175.5C 448.305,172.039 450.471,169.372 453.5,167.5 Z"/></g>
<g><path style="opacity:0.972" fill="#3d2c99" d="M 747.5,169.5 C 764.726,201.614 781.726,233.947 798.5,266.5C 813.051,234.732 827.051,202.732 840.5,170.5C 852.173,170.333 863.839,170 875.5,169.5C 875.5,171.167 875.5,172.833 875.5,174.5C 869.154,174.543 863.321,176.21 858,179.5C 857.333,213.833 857.333,248.167 858,282.5C 862.023,288.386 867.523,290.386 874.5,288.5C 875.452,290.045 875.785,291.712 875.5,293.5C 857.504,292.261 839.504,292.261 821.5,293.5C 821.5,292.167 821.5,290.833 821.5,289.5C 828.012,290.042 833.512,288.042 838,283.5C 838.667,254.5 838.667,225.5 838,196.5C 823.333,229.167 808.667,261.833 794,294.5C 792.333,295.833 790.667,295.833 789,294.5C 772.667,262.5 756.333,230.5 740,198.5C 739.333,226.833 739.333,255.167 740,283.5C 744.182,287.925 749.348,289.592 755.5,288.5C 755.5,290.167 755.5,291.833 755.5,293.5C 741.168,292.194 726.835,292.194 712.5,293.5C 712.5,292.167 712.5,290.833 712.5,289.5C 718.328,289.12 723.994,287.953 729.5,286C 731.487,284.681 732.654,282.848 733,280.5C 733.667,249.833 733.667,219.167 733,188.5C 731.969,185.461 730.135,182.961 727.5,181C 722.235,177.856 716.569,176.023 710.5,175.5C 710.5,173.833 710.5,172.167 710.5,170.5C 723.011,170.829 735.345,170.495 747.5,169.5 Z"/></g>
<g><path style="opacity:0.967" fill="#3d2b9a" d="M 116.5,170.5 C 135.5,170.5 154.5,170.5 173.5,170.5C 173.5,172.167 173.5,173.833 173.5,175.5C 169.046,175.422 164.713,176.089 160.5,177.5C 159.051,179.611 158.051,181.944 157.5,184.5C 168.358,211.88 180.025,238.88 192.5,265.5C 205.391,237.878 217.058,209.712 227.5,181C 227.241,179.739 226.574,178.739 225.5,178C 220.977,176.203 216.31,175.036 211.5,174.5C 211.5,173.167 211.5,171.833 211.5,170.5C 225.5,170.5 239.5,170.5 253.5,170.5C 253.5,172.167 253.5,173.833 253.5,175.5C 244.514,174.906 238.014,178.573 234,186.5C 219.137,222.593 204.97,258.926 191.5,295.5C 188.167,295.5 184.833,295.5 181.5,295.5C 166.552,258.167 150.719,221.167 134,184.5C 129.788,178.473 123.954,175.14 116.5,174.5C 116.5,173.167 116.5,171.833 116.5,170.5 Z"/></g>
<g><path style="opacity:0.979" fill="#3d2b9a" d="M 376.5,210.5 C 377.5,210.5 378.5,210.5 379.5,210.5C 379.589,217.351 380.423,224.018 382,230.5C 388.131,214.687 399.298,208.853 415.5,213C 424.757,222.366 424.757,231.699 415.5,241C 410.243,242.426 405.743,241.259 402,237.5C 399.429,231.943 400.595,227.277 405.5,223.5C 402.736,219.178 399.07,218.345 394.5,221C 385.387,228.725 380.721,238.558 380.5,250.5C 381.136,262.16 381.636,273.827 382,285.5C 385.86,287.673 390.027,288.673 394.5,288.5C 394.5,289.833 394.5,291.167 394.5,292.5C 380.5,292.5 366.5,292.5 352.5,292.5C 352.5,291.167 352.5,289.833 352.5,288.5C 356.744,288.252 360.578,286.919 364,284.5C 364.667,263.167 364.667,241.833 364,220.5C 360.257,219.271 356.424,218.271 352.5,217.5C 352.167,216.833 351.833,216.167 351.5,215.5C 360.041,214.233 368.374,212.567 376.5,210.5 Z"/></g>
<g><path style="opacity:0.978" fill="#3d2b99" d="M 465.5,209.5 C 466.765,210.514 467.431,212.014 467.5,214C 466.378,237.821 466.212,261.654 467,285.5C 468.171,286.893 469.671,287.727 471.5,288C 474.482,288.498 477.482,288.665 480.5,288.5C 480.5,289.833 480.5,291.167 480.5,292.5C 466.167,292.5 451.833,292.5 437.5,292.5C 437.5,291.167 437.5,289.833 437.5,288.5C 442.118,289.076 446.285,288.076 450,285.5C 450.833,263.826 450.666,242.159 449.5,220.5C 445.644,218.997 441.644,218.33 437.5,218.5C 437.5,217.167 437.5,215.833 437.5,214.5C 447.193,214.108 456.526,212.442 465.5,209.5 Z"/></g>
<g><path style="opacity:0.967" fill="#3d2b9a" d="M 1067.5,211.5 C 1082.43,209.413 1094.59,214.08 1104,225.5C 1107.62,233.744 1106.45,241.244 1100.5,248C 1085.72,252.889 1080.22,247.722 1084,232.5C 1085.21,230.951 1086.71,229.785 1088.5,229C 1091.33,228.788 1094,228.621 1096.5,228.5C 1092.42,220.033 1085.59,215.699 1076,215.5C 1066.59,217.567 1060.26,223.234 1057,232.5C 1052.85,245.086 1052.51,257.753 1056,270.5C 1062.97,288.432 1074.8,292.765 1091.5,283.5C 1094.92,278.977 1098.09,274.31 1101,269.5C 1102.96,270.625 1104.8,271.959 1106.5,273.5C 1098.33,291.804 1084.33,298.971 1064.5,295C 1048.56,291.394 1039.06,281.561 1036,265.5C 1030.37,237.729 1040.87,219.729 1067.5,211.5 Z"/></g>
<g><path style="opacity:0.967" fill="#3d2c9a" d="M 1145.5,211.5 C 1160.07,209.626 1171.9,214.293 1181,225.5C 1182.56,227.957 1183.56,230.624 1184,233.5C 1184.8,247.193 1184.63,260.86 1183.5,274.5C 1184.11,277.145 1184.61,279.812 1185,282.5C 1187.82,287.395 1191.16,287.729 1195,283.5C 1195.8,280.756 1196.8,278.089 1198,275.5C 1199.49,276.155 1200.65,277.155 1201.5,278.5C 1197.71,291.899 1189.04,296.732 1175.5,293C 1170.98,290.124 1168.48,285.957 1168,280.5C 1158.86,292.495 1147.02,296.662 1132.5,293C 1121.05,287.358 1116.88,278.191 1120,265.5C 1120.96,261.532 1123.13,258.365 1126.5,256C 1131.17,253.163 1136.17,251.163 1141.5,250C 1150.04,249.027 1158.54,248.193 1167,247.5C 1168.11,238.99 1167.45,230.656 1165,222.5C 1159.68,216.833 1153.18,214.999 1145.5,217C 1142.23,217.936 1139.9,219.936 1138.5,223C 1143.22,226.254 1144.72,230.754 1143,236.5C 1139.72,242.109 1134.89,243.942 1128.5,242C 1121.56,236.314 1120.73,229.814 1126,222.5C 1131.34,216.584 1137.84,212.918 1145.5,211.5 Z M 1165.5,251.5 C 1158.92,252.335 1152.25,253.502 1145.5,255C 1143.67,256.167 1141.83,257.333 1140,258.5C 1135.39,266.103 1135.55,273.603 1140.5,281C 1150.74,287.072 1159.24,285.239 1166,275.5C 1166.82,267.323 1166.66,259.323 1165.5,251.5 Z"/></g>
<g><path style="opacity:0.951" fill="#3d2c9a" d="M 1236.5,210.5 C 1237.5,210.5 1238.5,210.5 1239.5,210.5C 1239.71,217.28 1240.54,223.946 1242,230.5C 1245.44,222.059 1251.27,215.893 1259.5,212C 1277.29,209.457 1284.46,216.957 1281,234.5C 1276.45,242.193 1270.45,243.526 1263,238.5C 1259.25,232.768 1260.08,227.768 1265.5,223.5C 1262.24,218.689 1258.24,218.189 1253.5,222C 1246.44,228.292 1242.1,236.126 1240.5,245.5C 1241.28,258.815 1241.78,272.148 1242,285.5C 1245.86,287.673 1250.03,288.673 1254.5,288.5C 1254.5,289.833 1254.5,291.167 1254.5,292.5C 1240.5,292.5 1226.5,292.5 1212.5,292.5C 1212.5,291.167 1212.5,289.833 1212.5,288.5C 1216.74,288.252 1220.58,286.919 1224,284.5C 1224.67,263.167 1224.67,241.833 1224,220.5C 1220.35,218.954 1216.52,218.287 1212.5,218.5C 1212.67,217.178 1212.34,216.011 1211.5,215C 1220.11,214.275 1228.44,212.775 1236.5,210.5 Z"/></g>
<g><path style="opacity:0.961" fill="#3d2b9a" d="M 298.5,212.5 C 324.28,212.055 336.614,224.721 335.5,250.5C 317.833,250.5 300.167,250.5 282.5,250.5C 281.819,262.247 284.319,273.247 290,283.5C 293.043,288.574 297.543,290.908 303.5,290.5C 311.699,290.465 318.199,287.132 323,280.5C 325.034,276.988 327.201,273.655 329.5,270.5C 331.924,271.423 333.924,272.923 335.5,275C 322.599,296.064 304.599,301.731 281.5,292C 271.271,286.054 265.104,277.221 263,265.5C 258.512,236.39 270.346,218.724 298.5,212.5 Z M 295.5,217.5 C 293.645,218.69 291.812,220.023 290,221.5C 285.616,229.087 283.116,237.253 282.5,246C 293.828,246.5 305.162,246.667 316.5,246.5C 316.666,241.489 316.499,236.489 316,231.5C 312.88,221.516 306.047,216.849 295.5,217.5 Z"/></g>
<g><path style="opacity:0.962" fill="#3d2b9a" d="M 632.5,214.5 C 643.791,215.792 655.124,215.792 666.5,214.5C 666.67,215.822 666.337,216.989 665.5,218C 661.575,218.063 658.075,219.229 655,221.5C 640.333,255.5 625.667,289.5 611,323.5C 602.22,336.655 590.387,340.488 575.5,335C 567.226,330.284 564.726,323.45 568,314.5C 573.747,308.785 580.247,307.952 587.5,312C 590.318,315.338 591.151,319.171 590,323.5C 588.833,326 587,327.833 584.5,329C 586.339,330.132 588.339,330.965 590.5,331.5C 599.595,327.571 605.761,320.904 609,311.5C 611.429,306.547 613.262,301.38 614.5,296C 604.478,272.121 594.311,248.288 584,224.5C 579.591,220.765 574.424,218.932 568.5,219C 567.663,217.989 567.33,216.822 567.5,215.5C 582.515,215.167 597.515,215.501 612.5,216.5C 610.336,218.684 607.669,220.017 604.5,220.5C 603.978,221.607 603.645,222.774 603.5,224C 609.741,241.723 616.575,259.223 624,276.5C 631.466,259.265 638.632,241.931 645.5,224.5C 645.61,222.626 644.944,221.126 643.5,220C 639.467,219.305 635.467,218.472 631.5,217.5C 632.127,216.583 632.461,215.583 632.5,214.5 Z"/></g>
<g><path style="opacity:0.959" fill="#3d2b9a" d="M 950.5,214.5 C 961.883,215.45 973.216,215.783 984.5,215.5C 984.167,216.167 983.833,216.833 983.5,217.5C 981.234,218.314 978.9,218.814 976.5,219C 975.069,219.465 973.903,220.299 973,221.5C 958.667,254.833 944.333,288.167 930,321.5C 922.236,335.091 910.736,339.925 895.5,336C 883.321,329.967 881.321,321.634 889.5,311C 896.841,308.029 903.008,309.529 908,315.5C 909.771,321.62 907.938,326.286 902.5,329.5C 906.717,331.953 910.717,331.453 914.5,328C 923.319,319.039 929.319,308.372 932.5,296C 922.746,272.325 912.579,248.825 902,225.5C 897.903,221.017 892.736,218.85 886.5,219C 885.663,217.989 885.33,216.822 885.5,215.5C 900.167,215.5 914.833,215.5 929.5,215.5C 929.5,216.5 929.5,217.5 929.5,218.5C 926.882,218.779 924.382,219.446 922,220.5C 921.333,222.5 921.333,224.5 922,226.5C 927.951,243.067 934.451,259.4 941.5,275.5C 949.645,258.874 956.978,241.874 963.5,224.5C 963.368,222.399 962.368,220.899 960.5,220C 956.914,218.892 953.247,218.392 949.5,218.5C 949.433,217.041 949.766,215.708 950.5,214.5 Z"/></g>
<g><path style="opacity:0.938" fill="#3d2b9a" d="M 568.5,431.5 C 574.164,430.888 578.998,432.554 583,436.5C 584.101,442.736 581.601,444.736 575.5,442.5C 574.39,440.504 574.724,438.671 576.5,437C 573.612,435.036 570.779,435.203 568,437.5C 566.426,441.035 565.759,444.702 566,448.5C 568.719,449.444 571.552,449.777 574.5,449.5C 574.5,450.833 574.5,452.167 574.5,453.5C 571.5,453.5 568.5,453.5 565.5,453.5C 565.5,461.833 565.5,470.167 565.5,478.5C 568.167,478.5 570.833,478.5 573.5,478.5C 573.5,480.167 573.5,481.833 573.5,483.5C 566.833,483.5 560.167,483.5 553.5,483.5C 553.5,481.833 553.5,480.167 553.5,478.5C 555.5,478.5 557.5,478.5 559.5,478.5C 559.666,470.493 559.5,462.493 559,454.5C 557.301,453.594 555.467,453.261 553.5,453.5C 553.5,452.167 553.5,450.833 553.5,449.5C 555.467,449.739 557.301,449.406 559,448.5C 558.098,440.283 561.264,434.616 568.5,431.5 Z"/></g>
<g><path style="opacity:0.928" fill="#3d2b9a" d="M 177.5,433.5 C 183.279,432.708 188.446,434.041 193,437.5C 194.508,435.162 196.675,434.162 199.5,434.5C 199.5,439.833 199.5,445.167 199.5,450.5C 197.833,450.5 196.167,450.5 194.5,450.5C 194.036,443.032 190.036,438.698 182.5,437.5C 173.441,439.106 171.441,443.606 176.5,451C 181.363,453.066 186.363,454.732 191.5,456C 198.354,457.869 201.687,462.369 201.5,469.5C 200.138,479.464 194.305,484.464 184,484.5C 179.05,484.35 174.717,482.683 171,479.5C 170,482.64 167.833,483.973 164.5,483.5C 164.5,477.833 164.5,472.167 164.5,466.5C 166.167,466.5 167.833,466.5 169.5,466.5C 171.283,477.719 177.617,481.886 188.5,479C 195.491,474.736 196.157,469.736 190.5,464C 185.272,462.026 179.938,460.359 174.5,459C 167.403,455.744 164.903,450.244 167,442.5C 169.052,437.736 172.552,434.736 177.5,433.5 Z"/></g>
<g><path style="opacity:0.907" fill="#3d2b9b" d="M 540.5,433.5 C 546.643,434.026 547.976,436.86 544.5,442C 539.824,442.986 537.658,441.152 538,436.5C 538.698,435.309 539.531,434.309 540.5,433.5 Z"/></g>
<g><path style="opacity:0.94" fill="#3d2b9a" d="M 415.5,434.5 C 422.833,434.5 430.167,434.5 437.5,434.5C 437.5,435.833 437.5,437.167 437.5,438.5C 435.143,438.337 432.81,438.503 430.5,439C 435.462,450.427 440.296,461.927 445,473.5C 450.091,462.313 454.925,450.979 459.5,439.5C 457.257,438.526 454.924,438.192 452.5,438.5C 452.5,437.167 452.5,435.833 452.5,434.5C 458.833,434.5 465.167,434.5 471.5,434.5C 471.5,435.833 471.5,437.167 471.5,438.5C 469.076,438.192 466.743,438.526 464.5,439.5C 458.431,454.207 452.264,468.874 446,483.5C 444.333,484.833 442.667,484.833 441,483.5C 435.109,468.718 428.943,454.052 422.5,439.5C 420.257,438.526 417.924,438.192 415.5,438.5C 415.5,437.167 415.5,435.833 415.5,434.5 Z"/></g>
<g><path style="opacity:0.908" fill="#3d2b99" d="M 651.5,434.5 C 666.167,434.5 680.833,434.5 695.5,434.5C 695.5,440.167 695.5,445.833 695.5,451.5C 693.856,451.714 692.356,451.38 691,450.5C 691.207,440.546 686.373,436.546 676.5,438.5C 676.5,451.833 676.5,465.167 676.5,478.5C 679.167,478.5 681.833,478.5 684.5,478.5C 684.5,480.167 684.5,481.833 684.5,483.5C 676.833,483.5 669.167,483.5 661.5,483.5C 661.5,481.833 661.5,480.167 661.5,478.5C 664.167,478.5 666.833,478.5 669.5,478.5C 669.5,465.167 669.5,451.833 669.5,438.5C 659.627,436.546 654.793,440.546 655,450.5C 653.667,451.833 652.333,451.833 651,450.5C 650.219,445.083 650.385,439.75 651.5,434.5 Z"/></g>
<g><path style="opacity:0.964" fill="#3d2b99" d="M 913.5,440.5 C 914.833,440.5 916.167,440.5 917.5,440.5C 917.223,443.448 917.556,446.281 918.5,449C 921.482,449.498 924.482,449.665 927.5,449.5C 927.5,450.833 927.5,452.167 927.5,453.5C 924.167,453.5 920.833,453.5 917.5,453.5C 917.334,461.507 917.5,469.507 918,477.5C 918.667,478.167 919.333,478.833 920,479.5C 922.27,478.273 924.103,476.606 925.5,474.5C 927.947,477.101 927.614,479.601 924.5,482C 920.888,484.169 917.221,484.503 913.5,483C 912.107,481.829 911.273,480.329 911,478.5C 910.5,470.173 910.334,461.84 910.5,453.5C 908.801,453.66 907.134,453.494 905.5,453C 904.978,452.439 904.645,451.772 904.5,451C 906.267,449.174 908.434,448.007 911,447.5C 911.744,445.1 912.577,442.767 913.5,440.5 Z"/></g>
<g><path style="opacity:0.909" fill="#3d2b9a" d="M 216.5,448.5 C 230.133,446.801 236.799,452.801 236.5,466.5C 228.833,466.5 221.167,466.5 213.5,466.5C 212.908,476.079 217.241,480.245 226.5,479C 228.963,477.079 230.963,474.746 232.5,472C 233.793,471.51 235.127,471.343 236.5,471.5C 235.914,477.25 232.914,481.083 227.5,483C 211.083,484.575 204.25,477.075 207,460.5C 208.194,454.819 211.36,450.819 216.5,448.5 Z M 218.5,452.5 C 215.92,455.16 214.253,458.327 213.5,462C 218.864,462.829 224.198,462.663 229.5,461.5C 228.455,455.11 224.789,452.11 218.5,452.5 Z"/></g>
<g><path style="opacity:0.93" fill="#3d2b9a" d="M 252.5,448.5 C 257.777,447.931 262.777,448.765 267.5,451C 270.265,453.995 271.098,457.495 270,461.5C 267.667,464.167 265.333,464.167 263,461.5C 262.104,458.975 262.604,456.808 264.5,455C 257.984,450.749 253.151,452.249 250,459.5C 247.704,466.901 249.204,473.401 254.5,479C 260.715,480.559 265.048,478.393 267.5,472.5C 268.689,471.571 270.022,471.238 271.5,471.5C 269.071,482.226 262.404,486.059 251.5,483C 244.391,479.889 241.058,474.389 241.5,466.5C 241.144,457.891 244.81,451.891 252.5,448.5 Z"/></g>
<g><path style="opacity:0.934" fill="#3d2b9a" d="M 334.5,448.5 C 344.299,447.44 347.299,451.273 343.5,460C 340.099,461.135 338.099,459.968 337.5,456.5C 339.024,452.249 337.69,451.415 333.5,454C 329.9,461.407 328.734,469.24 330,477.5C 331.699,478.406 333.533,478.739 335.5,478.5C 335.5,480.167 335.5,481.833 335.5,483.5C 329.5,483.5 323.5,483.5 317.5,483.5C 317.5,481.833 317.5,480.167 317.5,478.5C 319.5,478.5 321.5,478.5 323.5,478.5C 323.5,470.167 323.5,461.833 323.5,453.5C 321.5,453.5 319.5,453.5 317.5,453.5C 317.5,452.167 317.5,450.833 317.5,449.5C 321.5,449.5 325.5,449.5 329.5,449.5C 329.351,450.552 329.517,451.552 330,452.5C 331.397,450.93 332.897,449.596 334.5,448.5 Z"/></g>
<g><path style="opacity:0.893" fill="#3d2b9a" d="M 359.5,448.5 C 372.986,446.987 379.319,452.987 378.5,466.5C 371.167,466.5 363.833,466.5 356.5,466.5C 355.293,476.012 359.293,480.179 368.5,479C 371.296,477.581 373.296,475.415 374.5,472.5C 375.689,471.571 377.022,471.238 378.5,471.5C 376.051,482.235 369.384,486.068 358.5,483C 350.136,478.275 346.97,471.108 349,461.5C 350.171,455.097 353.671,450.764 359.5,448.5 Z M 361.5,452.5 C 358.277,454.946 356.61,458.28 356.5,462.5C 361.5,462.5 366.5,462.5 371.5,462.5C 371.211,455.814 367.878,452.48 361.5,452.5 Z"/></g>
<g><path style="opacity:0.904" fill="#3d2b9a" d="M 479.5,448.5 C 492.986,446.987 499.319,452.987 498.5,466.5C 491.167,466.5 483.833,466.5 476.5,466.5C 476.116,478.88 481.283,482.214 492,476.5C 492.609,472.717 494.776,471.05 498.5,471.5C 496.012,482.252 489.345,486.085 478.5,483C 471.397,479.929 468.064,474.429 468.5,466.5C 468.213,457.842 471.88,451.842 479.5,448.5 Z M 481.5,452.5 C 478.277,454.946 476.61,458.28 476.5,462.5C 481.5,462.5 486.5,462.5 491.5,462.5C 491.244,455.933 487.91,452.599 481.5,452.5 Z"/></g>
<g><path style="opacity:0.941" fill="#3d2c99" d="M 519.5,448.5 C 527.868,447.061 531.368,450.395 530,458.5C 526.336,461.446 523.502,460.78 521.5,456.5C 523.928,451.989 522.761,451.322 518,454.5C 514.918,462.17 513.751,470.17 514.5,478.5C 516.5,478.5 518.5,478.5 520.5,478.5C 520.5,480.167 520.5,481.833 520.5,483.5C 514.5,483.5 508.5,483.5 502.5,483.5C 502.5,481.833 502.5,480.167 502.5,478.5C 504.5,478.5 506.5,478.5 508.5,478.5C 508.5,470.167 508.5,461.833 508.5,453.5C 506.5,453.5 504.5,453.5 502.5,453.5C 502.5,452.167 502.5,450.833 502.5,449.5C 506.5,449.5 510.5,449.5 514.5,449.5C 514.351,450.552 514.517,451.552 515,452.5C 516.397,450.93 517.897,449.596 519.5,448.5 Z"/></g>
<g><path style="opacity:0.914" fill="#3d2c99" d="M 714.5,448.5 C 720.345,447.039 724.345,449.039 726.5,454.5C 725.515,460.377 722.682,461.711 718,458.5C 719.091,451.301 717.091,450.635 712,456.5C 710.609,463.746 710.109,471.079 710.5,478.5C 712.167,478.5 713.833,478.5 715.5,478.5C 715.5,480.167 715.5,481.833 715.5,483.5C 709.5,483.5 703.5,483.5 697.5,483.5C 697.5,481.833 697.5,480.167 697.5,478.5C 699.5,478.5 701.5,478.5 703.5,478.5C 703.5,470.167 703.5,461.833 703.5,453.5C 701.5,453.5 699.5,453.5 697.5,453.5C 697.5,452.167 697.5,450.833 697.5,449.5C 702.322,448.935 706.822,449.601 711,451.5C 712.145,450.364 713.312,449.364 714.5,448.5 Z"/></g>
<g><path style="opacity:0.907" fill="#3d2b99" d="M 738.5,448.5 C 742.182,448.335 745.848,448.501 749.5,449C 751.286,449.785 752.786,450.951 754,452.5C 755.113,461.419 755.946,470.419 756.5,479.5C 758.641,476.981 760.641,476.981 762.5,479.5C 761.051,482.778 758.551,484.112 755,483.5C 751.489,484.251 749.489,482.918 749,479.5C 746.464,482.766 743.131,484.1 739,483.5C 730.043,483.539 726.71,479.206 729,470.5C 733.913,464.141 740.413,461.808 748.5,463.5C 749.915,453.411 745.915,450.245 736.5,454C 738.673,455.865 739.007,458.031 737.5,460.5C 730.918,462.658 728.751,460.324 731,453.5C 733.426,451.548 735.926,449.881 738.5,448.5 Z M 741.5,466.5 C 743.833,466.5 746.167,466.5 748.5,466.5C 750.036,473.103 747.703,477.437 741.5,479.5C 735.926,478.017 734.426,474.684 737,469.5C 738.409,468.219 739.909,467.219 741.5,466.5 Z"/></g>
<g><path style="opacity:0.944" fill="#3d2b99" d="M 782.5,448.5 C 785.85,448.335 789.183,448.502 792.5,449C 793.931,449.465 795.097,450.299 796,451.5C 797.443,460.392 797.943,469.392 797.5,478.5C 799.5,478.5 801.5,478.5 803.5,478.5C 803.5,480.167 803.5,481.833 803.5,483.5C 797.5,483.5 791.5,483.5 785.5,483.5C 785.5,481.833 785.5,480.167 785.5,478.5C 787.5,478.5 789.5,478.5 791.5,478.5C 791.856,470.762 791.356,463.095 790,455.5C 784.75,452.253 780.417,453.253 777,458.5C 775.623,465.076 775.123,471.743 775.5,478.5C 777.5,478.5 779.5,478.5 781.5,478.5C 781.5,480.167 781.5,481.833 781.5,483.5C 775.5,483.5 769.5,483.5 763.5,483.5C 763.5,481.833 763.5,480.167 763.5,478.5C 765.167,478.5 766.833,478.5 768.5,478.5C 768.5,470.167 768.5,461.833 768.5,453.5C 766.833,453.5 765.167,453.5 763.5,453.5C 763.5,452.167 763.5,450.833 763.5,449.5C 767.5,449.5 771.5,449.5 775.5,449.5C 775.343,450.873 775.51,452.207 776,453.5C 777.805,451.174 779.972,449.508 782.5,448.5 Z"/></g>
<g><path style="opacity:0.932" fill="#3d2b99" d="M 813.5,448.5 C 818.609,447.803 823.276,448.803 827.5,451.5C 828.386,450.675 828.719,449.675 828.5,448.5C 830.144,448.286 831.644,448.62 833,449.5C 833.499,453.152 833.665,456.818 833.5,460.5C 829.27,461.437 826.77,459.771 826,455.5C 823.237,453.03 820.07,452.196 816.5,453C 814.424,454.884 814.09,457.051 815.5,459.5C 820.827,461.666 826.161,463.833 831.5,466C 836.63,476.108 833.63,482.274 822.5,484.5C 819.235,483.814 816.068,482.814 813,481.5C 811.079,483.003 808.912,483.669 806.5,483.5C 806.5,479.5 806.5,475.5 806.5,471.5C 810.73,470.563 813.23,472.229 814,476.5C 818.145,479.979 822.478,480.312 827,477.5C 827.743,475.559 827.576,473.726 826.5,472C 823.007,470.209 819.341,468.876 815.5,468C 808.817,465.374 806.65,460.541 809,453.5C 810.025,451.313 811.525,449.646 813.5,448.5 Z"/></g>
<g><path style="opacity:0.921" fill="#3d2b99" d="M 849.5,448.5 C 852.85,448.335 856.183,448.502 859.5,449C 861.329,449.273 862.829,450.107 864,451.5C 865.278,460.399 865.945,469.399 866,478.5C 866.414,478.957 866.914,479.291 867.5,479.5C 868.85,478.05 870.516,477.383 872.5,477.5C 872.035,481.629 869.701,483.629 865.5,483.5C 862.185,484.016 860.018,482.683 859,479.5C 856.464,482.766 853.131,484.1 849,483.5C 840.595,483.759 837.261,479.759 839,471.5C 840.122,469.376 841.622,467.543 843.5,466C 848.534,464.149 853.701,462.983 859,462.5C 859.89,452.881 856.056,450.214 847.5,454.5C 849.712,461.12 847.545,463.12 841,460.5C 839.925,456.933 840.758,453.933 843.5,451.5C 845.604,450.481 847.604,449.481 849.5,448.5 Z M 851.5,466.5 C 854.167,466.5 856.833,466.5 859.5,466.5C 860.437,473.214 857.77,477.547 851.5,479.5C 847.887,479.372 846.22,477.539 846.5,474C 846.426,470.256 848.092,467.756 851.5,466.5 Z"/></g>
<g><path style="opacity:0.918" fill="#3d2c9a" d="M 884.5,448.5 C 890.971,447.345 896.471,449.011 901,453.5C 903.746,458.318 902.579,461.652 897.5,463.5C 893.126,461.37 892.459,458.37 895.5,454.5C 887.877,450.568 883.044,452.901 881,461.5C 879.411,468.2 880.911,474.034 885.5,479C 892.443,480.873 896.776,478.373 898.5,471.5C 900.288,471.215 901.955,471.548 903.5,472.5C 900.048,482.736 893.048,486.236 882.5,483C 875.765,479.699 872.432,474.199 872.5,466.5C 872.562,457.67 876.562,451.67 884.5,448.5 Z"/></g>
<g><path style="opacity:0.952" fill="#3e2b99" d="M 274.5,449.5 C 278.5,449.5 282.5,449.5 286.5,449.5C 286.334,458.173 286.5,466.84 287,475.5C 289.531,479.79 293.031,480.623 297.5,478C 299.041,476.421 300.208,474.587 301,472.5C 301.5,466.175 301.666,459.842 301.5,453.5C 299.833,453.5 298.167,453.5 296.5,453.5C 296.5,452.167 296.5,450.833 296.5,449.5C 300.5,449.5 304.5,449.5 308.5,449.5C 308.5,459.167 308.5,468.833 308.5,478.5C 310.5,478.5 312.5,478.5 314.5,478.5C 314.5,480.167 314.5,481.833 314.5,483.5C 310.486,483.666 306.486,483.499 302.5,483C 301.809,481.933 301.309,480.766 301,479.5C 299.786,481.049 298.286,482.215 296.5,483C 291.713,483.879 287.047,483.545 282.5,482C 281.283,480.352 280.45,478.519 280,476.5C 279.5,468.841 279.334,461.174 279.5,453.5C 277.833,453.5 276.167,453.5 274.5,453.5C 274.5,452.167 274.5,450.833 274.5,449.5 Z"/></g>
<g><path style="opacity:0.938" fill="#3d2c99" d="M 533.5,449.5 C 537.5,449.5 541.5,449.5 545.5,449.5C 545.5,459.167 545.5,468.833 545.5,478.5C 547.5,478.5 549.5,478.5 551.5,478.5C 551.5,480.167 551.5,481.833 551.5,483.5C 545.5,483.5 539.5,483.5 533.5,483.5C 533.5,481.833 533.5,480.167 533.5,478.5C 535.5,478.5 537.5,478.5 539.5,478.5C 539.5,470.167 539.5,461.833 539.5,453.5C 537.5,453.5 535.5,453.5 533.5,453.5C 533.5,452.167 533.5,450.833 533.5,449.5 Z"/></g>
<g><path style="opacity:0.938" fill="#3d2b9a" d="M 592.5,499.5 C 589.167,499.5 585.833,499.5 582.5,499.5C 578.535,495.797 577.869,491.631 580.5,487C 582.473,486.505 584.473,486.338 586.5,486.5C 586.84,489.144 586.173,491.477 584.5,493.5C 585.693,495.384 587.359,495.884 589.5,495C 593.494,492.179 595.827,488.346 596.5,483.5C 592.336,473.838 588.17,464.172 584,454.5C 582.301,453.594 580.467,453.261 578.5,453.5C 578.5,452.167 578.5,450.833 578.5,449.5C 584.5,449.5 590.5,449.5 596.5,449.5C 596.5,450.833 596.5,452.167 596.5,453.5C 594.712,453.215 593.045,453.548 591.5,454.5C 594.333,460.833 597.167,467.167 600,473.5C 603.117,467.326 605.95,460.993 608.5,454.5C 607.311,453.571 605.978,453.238 604.5,453.5C 604.5,452.167 604.5,450.833 604.5,449.5C 609.167,449.5 613.833,449.5 618.5,449.5C 618.5,450.833 618.5,452.167 618.5,453.5C 616.833,453.5 615.167,453.5 613.5,453.5C 608.964,466.245 604.131,478.912 599,491.5C 597.348,494.646 595.181,497.312 592.5,499.5 Z"/></g>
<g><path style="opacity:0.932" fill="#3d2b9a" d="M 386.5,475.5 C 390.459,474.578 392.792,476.078 393.5,480C 391.78,483.465 389.113,484.298 385.5,482.5C 384.073,479.884 384.406,477.551 386.5,475.5 Z"/></g>
<g><path style="opacity:0.911" fill="#3c2a98" d="M 618.5,475.5 C 625.158,474.344 627.158,476.844 624.5,483C 617.75,484.469 615.75,481.969 618.5,475.5 Z"/></g>
<g><path style="opacity:0.913" fill="#3d2c9a" d="M 932.5,475.5 C 938.487,474.977 940.487,477.477 938.5,483C 931.54,484.216 929.54,481.716 932.5,475.5 Z"/></g>
</svg>
