<svg xmlns="http://www.w3.org/2000/svg" version="1.1" xmlns:xlink="http://www.w3.org/1999/xlink" xmlns:svgjs="http://svgjs.dev/svgjs" width="1500" height="684" viewBox="0 0 1500 684"><g transform="matrix(1,0,0,1,0.15999999999996817,-0.6813599999999269)"><svg viewBox="0 0 375 171" data-background-color="#ffffff" preserveAspectRatio="xMidYMid meet" height="684" width="1500" xmlns="http://www.w3.org/2000/svg" xmlns:xlink="http://www.w3.org/1999/xlink"><g id="tight-bounds" transform="matrix(1,0,0,1,-0.03976000000000113,0.17033999999998173)"><svg viewBox="0 0 375.07953 170.65909" height="170.65909" width="375.07953"><g><svg></svg></g><g><svg viewBox="0 0 375.07953 170.65909" height="170.65909" width="375.07953"><g transform="matrix(1,0,0,1,-10.22024,-40.27068)"><path d="M10.22 206.929v-166.658h375.08v166.658l-75.016 0 0-5.25h69.765v-156.158h-364.578v156.158l69.765 0 0 5.25z" fill="#89939e" fill-rule="nonzero" stroke="none" stroke-width="1" stroke-linecap="butt" stroke-linejoin="miter" stroke-miterlimit="10" stroke-dasharray="" stroke-dashoffset="0" font-family="none" font-weight="none" font-size="none" text-anchor="none" style="mix-blend-mode: normal" data-fill-palette-color="tertiary"></path><g><path d="M101.193 192.25v0c0.775 0 1.893-0.03 3.352-0.091 1.46-0.061 2.425-0.091 2.897-0.091v0h0.616c1.992 0 3.474 0.406 4.447 1.218 0.973 0.815 1.46 1.884 1.46 3.207v0c0 1.885-1.232 3.193-3.695 3.922v0 0.069c1.429 0.213 2.559 0.771 3.389 1.674 0.827 0.906 1.241 1.99 1.241 3.252v0c0 1.688-0.573 3.003-1.72 3.946-1.149 0.943-2.834 1.414-5.054 1.414v0c-0.608 0-1.592-0.049-2.951-0.146-1.362-0.1-2.446-0.151-3.252-0.15v0c-0.091 0-0.236 0.005-0.434 0.013-0.198 0.006-0.342 0.009-0.433 0.009v0c-0.091-0.274-0.091-0.547 0-0.821v0l1.893-0.251c0.061-0.578 0.091-1.467 0.091-2.668v0-13.434l-1.847-0.228c-0.061-0.228-0.061-0.509 0-0.844zM107.305 201.214v0h-1.824v8.256c0.775 0.137 1.391 0.22 1.847 0.251v0c1.84 0 3.109-0.347 3.809-1.04 0.699-0.69 1.049-1.773 1.049-3.248v0c0-1.186-0.429-2.186-1.286-3.001-0.861-0.812-2.059-1.218-3.595-1.218zM107.465 193.026v0c-0.76 0-1.391 0.053-1.893 0.159v0c-0.061 0.578-0.091 1.528-0.091 2.851v0 4.037h1.779c1.414 0 2.445-0.289 3.092-0.866 0.645-0.578 0.967-1.437 0.967-2.578v0c0-1.156-0.353-2.045-1.058-2.668-0.709-0.623-1.641-0.935-2.796-0.935zM116.998 204.407v0c0-0.912 0.134-1.768 0.402-2.568 0.265-0.797 0.648-1.492 1.149-2.085 0.502-0.593 1.107-1.061 1.816-1.405 0.706-0.341 1.499-0.511 2.381-0.511v0c0.867 0 1.657 0.17 2.372 0.511 0.715 0.344 1.327 0.812 1.838 1.405 0.508 0.593 0.899 1.288 1.172 2.085 0.274 0.8 0.411 1.656 0.411 2.568v0c0 0.943-0.14 1.809-0.42 2.6-0.283 0.791-0.678 1.478-1.186 2.062-0.511 0.587-1.124 1.043-1.838 1.368-0.715 0.328-1.498 0.493-2.349 0.493v0c-0.897 0-1.698-0.16-2.404-0.479-0.709-0.319-1.309-0.768-1.802-1.346-0.496-0.578-0.876-1.267-1.14-2.066-0.268-0.797-0.401-1.674-0.402-2.632zM120.328 200.21v0c-0.654 0.928-0.981 2.326-0.98 4.197v0c0 0.928 0.088 1.741 0.264 2.44 0.173 0.699 0.412 1.28 0.716 1.743 0.304 0.465 0.661 0.812 1.072 1.04 0.411 0.228 0.859 0.342 1.346 0.342v0c0.471 0 0.92-0.114 1.346-0.342 0.426-0.228 0.791-0.575 1.094-1.04 0.304-0.462 0.547-1.043 0.73-1.743 0.182-0.699 0.274-1.513 0.274-2.44v0c0-0.928-0.091-1.746-0.274-2.454-0.182-0.706-0.429-1.291-0.739-1.756-0.313-0.462-0.678-0.812-1.095-1.05-0.42-0.234-0.865-0.351-1.336-0.351v0c-0.943 0-1.749 0.471-2.418 1.414zM130.5 204.407v0c0-0.912 0.134-1.768 0.402-2.568 0.265-0.797 0.648-1.492 1.149-2.085 0.502-0.593 1.107-1.061 1.816-1.405 0.706-0.341 1.499-0.511 2.381-0.511v0c0.867 0 1.657 0.17 2.372 0.511 0.715 0.344 1.327 0.812 1.838 1.405 0.508 0.593 0.899 1.288 1.173 2.085 0.274 0.8 0.411 1.656 0.41 2.568v0c0 0.943-0.14 1.809-0.42 2.6-0.283 0.791-0.678 1.478-1.186 2.062-0.511 0.587-1.124 1.043-1.838 1.368-0.715 0.328-1.498 0.493-2.349 0.493v0c-0.897 0-1.7-0.16-2.409-0.479-0.706-0.319-1.305-0.768-1.797-1.346-0.496-0.578-0.876-1.267-1.14-2.066-0.268-0.797-0.401-1.674-0.402-2.632zM133.83 200.21v0c-0.654 0.928-0.981 2.326-0.98 4.197v0c0 0.928 0.088 1.741 0.264 2.44 0.173 0.699 0.412 1.28 0.716 1.743 0.304 0.465 0.661 0.812 1.072 1.04 0.411 0.228 0.859 0.342 1.346 0.342v0c0.471 0 0.92-0.114 1.346-0.342 0.426-0.228 0.791-0.575 1.094-1.04 0.304-0.462 0.547-1.043 0.73-1.743 0.182-0.699 0.274-1.513 0.274-2.44v0c0-0.928-0.091-1.746-0.274-2.454-0.182-0.706-0.429-1.291-0.739-1.756-0.313-0.462-0.678-0.812-1.095-1.05-0.42-0.234-0.865-0.351-1.336-0.351v0c-0.943 0-1.749 0.471-2.418 1.414zM152.373 209.424l-4.63-5.519 4.767-4.607-1.506-0.183c-0.061-0.243-0.061-0.54 0-0.889v0c0.836 0.061 1.619 0.091 2.35 0.091v0c0.593 0 1.384-0.023 2.372-0.068v0c0.091 0.274 0.091 0.563 0 0.866v0l-1.802 0.32-4.037 3.786 4.972 5.953 1.779 0.456c0.061 0.243 0.061 0.547 0 0.912v0c-0.958-0.046-1.916-0.068-2.874-0.068v0c-0.654 0-1.619 0.015-2.896 0.045v0c-0.091-0.304-0.091-0.601 0-0.889v0zM147.492 196.014v0 13.296l1.848 0.343c0.061 0.243 0.061 0.547 0 0.912v0c-0.958-0.046-1.931-0.068-2.92-0.069v0c-0.699 0-1.688 0.015-2.965 0.046v0c-0.091-0.289-0.091-0.585 0-0.889v0l1.802-0.251c0.061-0.836 0.091-1.802 0.091-2.897v0-13.069l-1.87-0.228c-0.061-0.228-0.061-0.517 0-0.866v0c1.019-0.076 2.319-0.236 3.9-0.479v0c0.137 0.152 0.213 0.304 0.228 0.456v0c-0.076 0.395-0.114 1.627-0.114 3.695zM159.215 207.942v0c0.411 0 0.757 0.134 1.04 0.401 0.28 0.265 0.42 0.595 0.42 0.99v0c0 0.395-0.14 0.733-0.42 1.013-0.283 0.283-0.622 0.424-1.017 0.424v0c-0.395 0-0.733-0.141-1.013-0.424-0.283-0.28-0.424-0.617-0.424-1.013v0c0-0.395 0.137-0.725 0.411-0.99 0.274-0.268 0.608-0.401 1.003-0.401zM170.414 205.205l0.73 3.695c0.882 0.608 2.121 0.912 3.717 0.912v0c1.08 0 1.89-0.312 2.431-0.935 0.538-0.623 0.807-1.368 0.808-2.235v0c0-0.456-0.038-0.841-0.114-1.154-0.076-0.31-0.239-0.663-0.488-1.058-0.252-0.395-0.652-0.791-1.2-1.186-0.547-0.395-1.262-0.813-2.144-1.255v0c-1.034-0.517-1.87-1.004-2.509-1.459-0.639-0.456-1.118-0.928-1.437-1.415-0.319-0.487-0.532-0.95-0.638-1.391-0.106-0.441-0.16-0.988-0.16-1.642v0c0-1.338 0.537-2.377 1.61-3.115 1.07-0.736 2.336-1.104 3.796-1.104v0c1.809 0 3.558 0.456 5.245 1.368v0 4.379c-0.517 0.091-0.95 0.091-1.3 0v0l-0.73-3.946c-0.973-0.532-2.06-0.798-3.261-0.798v0c-0.806 0-1.486 0.24-2.039 0.721-0.556 0.477-0.835 1.149-0.835 2.016v0c0 0.487 0.03 0.867 0.091 1.14 0.061 0.274 0.213 0.596 0.457 0.967 0.243 0.374 0.646 0.747 1.208 1.118 0.563 0.374 1.315 0.789 2.258 1.245v0c3.254 1.581 4.881 3.467 4.881 5.657v0c0 1.551-0.593 2.805-1.779 3.763-1.186 0.958-2.737 1.437-4.653 1.437v0c-1.901 0-3.649-0.449-5.245-1.346v0-4.379c0.517-0.091 0.95-0.091 1.3 0zM193.221 201.214v0c-0.319 0.335-1.072 0.494-2.258 0.479v0c-0.243-1.916-0.935-2.874-2.075-2.874v0c-0.897 0-1.657 0.517-2.281 1.551-0.623 1.034-0.935 2.395-0.935 4.082v0c0 1.733 0.274 3.068 0.821 4.005 0.547 0.934 1.368 1.4 2.463 1.401v0c1.156 0 2.288-0.471 3.399-1.414v0c0.228 0.137 0.403 0.373 0.524 0.707v0c-1.11 1.186-2.501 1.779-4.174 1.779v0c-1.597 0-2.904-0.552-3.923-1.656-1.019-1.101-1.528-2.723-1.528-4.867v0c0-2.053 0.567-3.661 1.702-4.826 1.131-1.162 2.427-1.742 3.886-1.743v0c1.156 0 2.174 0.289 3.056 0.867 0.882 0.578 1.323 1.414 1.323 2.509zM197.076 207.44v0c0 0.791 0.144 1.349 0.433 1.674 0.289 0.328 0.745 0.493 1.369 0.493v0c0.456 0 0.962-0.141 1.519-0.424 0.553-0.28 1.066-0.686 1.537-1.218v0-3.558c-1.566 0.091-2.767 0.368-3.604 0.83-0.836 0.465-1.254 1.2-1.254 2.203zM201.934 203.586v0-1.163c0-1.292-0.147-2.232-0.443-2.819-0.298-0.584-0.789-0.876-1.473-0.876v0c-0.699 0-1.262 0.224-1.688 0.67-0.426 0.45-0.715 1.215-0.867 2.295v0c-0.487 0.106-0.844 0.16-1.071 0.159v0c-0.593 0-0.943-0.213-1.05-0.638v0c0-1.034 0.449-1.855 1.346-2.464 0.897-0.608 2.015-0.912 3.353-0.912v0c1.475 0 2.521 0.3 3.138 0.899 0.614 0.602 0.921 1.679 0.921 3.229v0 6.432c0 0.38 0.023 0.707 0.069 0.981v0l1.802 0.228c0.061 0.228 0.061 0.517 0 0.867v0c-1.08 0.046-2.228 0.152-3.444 0.319v0c-0.122-0.122-0.198-0.274-0.228-0.456v0l-0.114-1.574c-1.262 1.444-2.668 2.167-4.22 2.167v0c-0.958 0-1.706-0.274-2.244-0.821-0.541-0.547-0.812-1.285-0.812-2.213v0c0-1.399 0.636-2.456 1.907-3.17 1.268-0.715 2.974-1.095 5.118-1.14zM216.348 206.505v-4.174c0-1.171-0.155-1.992-0.465-2.463-0.313-0.471-0.835-0.707-1.565-0.707v0c-1.125 0-2.258 0.844-3.398 2.532v0 7.617l1.847 0.343c0.061 0.243 0.061 0.547 0 0.912v0c-0.958-0.046-1.939-0.068-2.942-0.069v0c-0.699 0-1.688 0.015-2.965 0.046v0c-0.091-0.289-0.091-0.585 0-0.889v0l1.802-0.251c0.061-0.836 0.091-1.802 0.091-2.897v0-6.249c0-0.304-0.023-0.585-0.068-0.844v0l-1.802-0.228c-0.061-0.228-0.061-0.517 0-0.867v0c1.049-0.076 2.357-0.236 3.923-0.479v0c0.137 0.152 0.213 0.304 0.228 0.456v0c-0.076 0.395-0.114 1.072-0.114 2.03v0c1.201-1.657 2.554-2.486 4.06-2.486v0c2.357 0 3.535 1.118 3.535 3.353v0 8.119l1.847 0.343c0.061 0.243 0.061 0.547 0 0.912v0c-0.958-0.046-1.939-0.068-2.942-0.069v0c-0.699 0-1.688 0.015-2.965 0.046v0c-0.091-0.289-0.091-0.585 0-0.889v0l1.802-0.251c0.061-0.836 0.091-1.802 0.091-2.897zM223.259 207.942v0c0.411 0 0.757 0.134 1.04 0.401 0.28 0.265 0.42 0.595 0.42 0.99v0c0 0.395-0.14 0.733-0.42 1.013-0.283 0.283-0.622 0.424-1.017 0.424v0c-0.395 0-0.733-0.141-1.013-0.424-0.283-0.28-0.424-0.617-0.424-1.013v0c0-0.395 0.137-0.725 0.41-0.99 0.274-0.268 0.608-0.401 1.004-0.401zM232.519 210.519v0c-0.091-0.274-0.091-0.547 0-0.821v0l1.893-0.274c0.061-0.578 0.091-1.467 0.091-2.668v0-13.434l-1.847-0.228c-0.061-0.228-0.061-0.509 0-0.844v0c0.228 0.015 0.585 0.023 1.072 0.023v0c0.973 0 2.232-0.043 3.776-0.128 1.542-0.082 2.427-0.123 2.655-0.123v0c2.98 0 5.238 0.806 6.774 2.418 1.536 1.612 2.304 3.778 2.304 6.5v0c0 2.767-0.722 5.063-2.167 6.888-1.444 1.825-3.467 2.737-6.067 2.737v0c-0.867 0-2.015-0.011-3.444-0.032-1.429-0.024-2.456-0.036-3.079-0.037v0c-0.882 0-1.536 0.008-1.961 0.023zM240.136 209.47v0c4.288 0 6.432-2.798 6.432-8.393v0c0-2.418-0.558-4.326-1.674-5.725-1.119-1.399-2.728-2.144-4.826-2.235v0c-0.182-0.015-0.464-0.023-0.844-0.023v0c-0.806 0-1.536 0.061-2.189 0.183v0c-0.061 0.578-0.091 1.498-0.092 2.759v0 13.366c0.182 0 0.62 0.012 1.314 0.036 0.69 0.021 1.317 0.032 1.879 0.032zM251.495 204.407v0c0-0.912 0.134-1.768 0.401-2.568 0.265-0.797 0.648-1.492 1.15-2.085 0.502-0.593 1.107-1.061 1.815-1.405 0.706-0.341 1.499-0.511 2.381-0.511v0c0.867 0 1.657 0.17 2.372 0.511 0.715 0.344 1.327 0.812 1.838 1.405 0.508 0.593 0.899 1.288 1.173 2.085 0.274 0.8 0.411 1.656 0.41 2.568v0c0 0.943-0.14 1.809-0.419 2.6-0.283 0.791-0.678 1.478-1.186 2.062-0.511 0.587-1.124 1.043-1.839 1.368-0.715 0.328-1.498 0.493-2.349 0.493v0c-0.897 0-1.698-0.16-2.404-0.479-0.709-0.319-1.309-0.768-1.802-1.346-0.496-0.578-0.876-1.267-1.14-2.066-0.268-0.797-0.401-1.674-0.401-2.632zM254.825 200.21v0c-0.654 0.928-0.981 2.326-0.981 4.197v0c0 0.928 0.088 1.741 0.264 2.44 0.173 0.699 0.412 1.28 0.717 1.743 0.304 0.465 0.661 0.812 1.072 1.04 0.411 0.228 0.859 0.342 1.345 0.342v0c0.471 0 0.92-0.114 1.346-0.342 0.426-0.228 0.791-0.575 1.095-1.04 0.304-0.462 0.547-1.043 0.729-1.743 0.182-0.699 0.274-1.513 0.274-2.44v0c0-0.928-0.091-1.746-0.274-2.454-0.182-0.706-0.429-1.291-0.739-1.756-0.313-0.462-0.678-0.812-1.094-1.05-0.42-0.234-0.865-0.351-1.337-0.351v0c-0.943 0-1.749 0.471-2.417 1.414zM274.188 206.505v-4.174c0-1.171-0.155-1.992-0.465-2.463-0.313-0.471-0.835-0.707-1.565-0.707v0c-1.125 0-2.258 0.844-3.398 2.532v0 7.617l1.847 0.343c0.061 0.243 0.061 0.547 0 0.912v0c-0.958-0.046-1.939-0.068-2.942-0.069v0c-0.699 0-1.688 0.015-2.965 0.046v0c-0.091-0.289-0.091-0.585 0-0.889v0l1.802-0.251c0.061-0.836 0.091-1.802 0.091-2.897v0-6.249c0-0.304-0.023-0.585-0.068-0.844v0l-1.802-0.228c-0.061-0.228-0.061-0.517 0-0.867v0c1.049-0.076 2.357-0.236 3.923-0.479v0c0.137 0.152 0.213 0.304 0.228 0.456v0c-0.076 0.395-0.114 1.072-0.114 2.03v0c1.201-1.657 2.554-2.486 4.06-2.486v0c2.357 0 3.535 1.118 3.535 3.353v0 8.119l1.847 0.343c0.061 0.243 0.061 0.547 0 0.912v0c-0.958-0.046-1.939-0.068-2.942-0.069v0c-0.699 0-1.688 0.015-2.965 0.046v0c-0.091-0.289-0.091-0.585 0-0.889v0l1.802-0.251c0.061-0.836 0.091-1.802 0.091-2.897zM289.059 204.042v0h-7.162c-0.137 3.877 1.026 5.816 3.49 5.816v0c1.049 0 2.121-0.464 3.216-1.391v0c0.228 0.137 0.403 0.373 0.524 0.707v0c-1.049 1.171-2.38 1.756-3.991 1.756v0c-3.71 0-5.565-2.182-5.565-6.546v0c0-2.068 0.547-3.677 1.642-4.826 1.095-1.146 2.372-1.72 3.832-1.72v0c1.597 0 2.745 0.555 3.444 1.665 0.699 1.11 1.049 2.554 1.049 4.334v0c-0.152 0.122-0.312 0.19-0.479 0.205zM284.999 198.751v0c-0.791 0-1.463 0.411-2.016 1.231-0.556 0.821-0.896 1.87-1.017 3.148v0h2.828c1.125 0 1.931-0.068 2.417-0.206v0c0-1.247-0.19-2.255-0.57-3.024-0.38-0.766-0.928-1.149-1.642-1.149zM293.073 207.942v0c0.411 0 0.757 0.134 1.04 0.401 0.28 0.265 0.42 0.595 0.42 0.99v0c0 0.395-0.14 0.733-0.42 1.013-0.283 0.283-0.622 0.424-1.017 0.424v0c-0.395 0-0.733-0.141-1.013-0.424-0.283-0.28-0.424-0.617-0.424-1.013v0c0-0.395 0.137-0.725 0.41-0.99 0.274-0.268 0.608-0.401 1.004-0.401z" fill="#89939e" fill-rule="nonzero" stroke="none" stroke-width="1" stroke-linecap="butt" stroke-linejoin="miter" stroke-miterlimit="10" stroke-dasharray="" stroke-dashoffset="0" font-family="none" font-weight="none" font-size="none" text-anchor="none" style="mix-blend-mode: normal" data-fill-palette-color="secondary" id="text-1"></path></g></g><g transform="matrix(1,0,0,1,29.33176499999999,56.21962584750487)"><svg viewBox="0 0 316.416 58.21983830499024" height="58.21983830499024" width="316.416"><g><svg viewBox="0 0 316.416 58.21983830499024" height="58.21983830499024" width="316.416"><g><svg viewBox="0 0 316.416 58.21983830499024" height="58.21983830499024" width="316.416"><g><svg viewBox="0 0 316.416 58.21983830499024" height="58.21983830499024" width="316.416"><g id="textblocktransform"><svg viewBox="0 0 316.416 58.21983830499024" height="58.21983830499024" width="316.416" id="textblock"><g><svg viewBox="0 0 316.416 58.21983830499024" height="58.21983830499024" width="316.416"><g transform="matrix(1,0,0,1,0,0)"><svg width="316.416" viewBox="1.95 -31.74 175.13000000000002 32.23" height="58.21983830499024" data-palette-color="#89939e"><path d="M24.71-22.66L24.71-22.66Q24.71-26.37 21.19-28.17L21.19-28.17Q18.9-29.3 15.67-29.3L15.67-29.3 1.95-29.3 1.95-28.03 5.86-28.03 5.86-1.27 1.95-1.27 1.95 0 15.82 0Q22.12 0 25.05-4L25.05-4Q26.56-6.1 26.56-8.59L26.56-8.59Q26.56-12.5 23.1-14.65L23.1-14.65Q21.48-15.58 19.38-15.97L19.38-15.97Q22.9-17.29 24.22-20.41L24.22-20.41Q24.71-21.58 24.71-22.66ZM10.06-28.03L14.5-28.03Q19.53-28.03 20.21-23.58L20.21-23.58Q20.31-22.95 20.31-22.27L20.31-22.27Q20.31-19.09 17.82-17.48L17.82-17.48Q16.36-16.55 14.4-16.55L14.4-16.55 10.06-16.55 10.06-28.03ZM10.06-15.23L15.33-15.23Q19.78-15.23 21.29-11.47L21.29-11.47Q21.88-10.11 21.88-8.5L21.88-8.5Q21.88-4.74 19.43-2.64L19.43-2.64Q17.82-1.27 15.58-1.27L15.58-1.27 10.06-1.27 10.06-15.23ZM34.86-10.4L34.86-10.4Q34.86-17.97 39.01-19.63L39.01-19.63Q40.09-20.02 41.26-20.02L41.26-20.02Q46.68-20.02 47.56-13.18L47.56-13.18Q47.7-12.01 47.7-10.6L47.7-10.6Q47.7-2.39 43.21-0.98L43.21-0.98Q42.33-0.73 41.4-0.73L41.4-0.73Q36.47-0.73 35.2-6.59L35.2-6.59Q34.86-8.3 34.86-10.4ZM41.4-21.24L41.4-21.24Q36.72-21.24 33.59-18.02L33.59-18.02Q30.71-15.04 30.71-10.6L30.71-10.6Q30.71-4.44 35.2-1.37L35.2-1.37Q37.94 0.49 41.26 0.49L41.26 0.49Q45.94 0.49 49.02-2.83L49.02-2.83Q51.85-5.86 51.85-10.4L51.85-10.4Q51.85-16.55 47.31-19.53L47.31-19.53Q44.63-21.24 41.4-21.24ZM59.91-10.4L59.91-10.4Q59.91-17.97 64.06-19.63L64.06-19.63Q65.13-20.02 66.3-20.02L66.3-20.02Q71.72-20.02 72.6-13.18L72.6-13.18Q72.75-12.01 72.75-10.6L72.75-10.6Q72.75-2.39 68.26-0.98L68.26-0.98Q67.38-0.73 66.45-0.73L66.45-0.73Q61.52-0.73 60.25-6.59L60.25-6.59Q59.91-8.3 59.91-10.4ZM66.45-21.24L66.45-21.24Q61.76-21.24 58.64-18.02L58.64-18.02Q55.76-15.04 55.76-10.6L55.76-10.6Q55.76-4.44 60.25-1.37L60.25-1.37Q62.98 0.49 66.3 0.49L66.3 0.49Q70.99 0.49 74.07-2.83L74.07-2.83Q76.9-5.86 76.9-10.4L76.9-10.4Q76.9-16.55 72.36-19.53L72.36-19.53Q69.67-21.24 66.45-21.24ZM89.89-1.22L89.89-1.22 87.69-1.22 87.69-8.45 90.37-10.94 97.26 0 103.75 0Q103.75-1.07 103.02-1.17L103.02-1.17Q102.82-1.22 102.53-1.22L102.53-1.22 100.77-1.22 92.91-13.33 97.5-17.63Q99.21-19.24 100.09-19.43L100.09-19.43Q100.48-19.53 100.97-19.53L100.97-19.53Q102.04-19.53 102.14-20.26L102.14-20.26Q102.19-20.51 102.19-20.75L102.19-20.75 93.89-20.75 93.89-19.53 97.55-19.53 87.69-10.4 87.69-31.74 80.36-31.74 80.36-30.52 84.03-30.52 84.03-4.15Q84.03-1.9 82.76-1.46L82.76-1.46Q82.02-1.22 80.36-1.22L80.36-1.22 80.36 0 91.11 0Q91.11-1.07 90.37-1.17L90.37-1.17Q90.18-1.22 89.89-1.22ZM150.92-28.03L150.92-29.3 143.1-29.3 132.56-5.42 121.23-29.3 114.25-29.3 114.25-28.03 118.15-28.03 118.15-1.27 114.25-1.27 114.25 0 124.01 0Q124.01-1.07 123.23-1.22L123.23-1.22Q122.99-1.27 122.74-1.27L122.74-1.27 120.1-1.27 120.1-22.27 130.8 0.24 131.82 0.24 143.1-24.9 143.1-1.27 139.2-1.27 139.2 0 150.92 0Q150.92-1.07 150.13-1.22L150.13-1.22Q149.89-1.27 149.65-1.27L149.65-1.27 147.01-1.27 147.01-28.03 150.92-28.03ZM176.11-20.51L177.08-20.51 176.84-29.3 154.33-29.3 154.33-28.03 158.24-28.03 158.24-1.27 154.33-1.27 154.33 0 176.84 0 177.08-8.79 176.11-8.79 175.42-6.49Q174.2-2.34 171.81-1.51L171.81-1.51Q171.08-1.27 170.25-1.27L170.25-1.27 162.44-1.27 162.44-14.4 172.49-14.4 172.49-15.82 162.44-15.82 162.44-28.03 170.25-28.03Q173.76-28.03 175.28-23.29L175.28-23.29Q175.38-23 175.42-22.8L175.42-22.8 176.11-20.51Z" opacity="1" transform="matrix(1,0,0,1,0,0)" fill="#89939e" class="wordmark-text-0" data-fill-palette-color="primary" id="text-0"></path></svg></g></svg></g></svg></g></svg></g><g></g></svg></g></svg></g></svg></g></svg></g><defs></defs></svg><rect width="375.07953" height="170.65909" fill="none" stroke="none" visibility="hidden"></rect></g></svg></g></svg>