<svg xmlns="http://www.w3.org/2000/svg" version="1.1" xmlns:xlink="http://www.w3.org/1999/xlink" xmlns:svgjs="http://svgjs.dev/svgjs" width="1500" height="1500" viewBox="0 0 1500 1500"><rect width="1500" height="1500" fill="#a988f9"></rect><g transform="matrix(0.6666666666666666,0,0,0.6666666666666666,250.10666666666668,583.3293333333334)"><svg viewBox="0 0 375 125" data-background-color="#a988f9" preserveAspectRatio="xMidYMid meet" height="500" width="1500" xmlns="http://www.w3.org/2000/svg" xmlns:xlink="http://www.w3.org/1999/xlink"><g id="tight-bounds" transform="matrix(1,0,0,1,-0.03976000000000113,0.001819999999980837)"><svg viewBox="0 0 375.07953 124.99657000000003" height="124.99657000000003" width="375.07953"><g><svg></svg></g><g><svg viewBox="0 0 375.07953 124.99657000000003" height="124.99657000000003" width="375.07953"><g transform="matrix(1,0,0,1,-10.22024,-64.28231999999998)"><path d="M10.22 182.918v-118.636h375.08v118.636h-128.283l0-3.949h124.334v-110.738h-367.182v110.738h25.611l0 3.949z" fill="#3e2c9a" fill-rule="nonzero" stroke="none" stroke-width="1" stroke-linecap="butt" stroke-linejoin="miter" stroke-miterlimit="10" stroke-dasharray="" stroke-dashoffset="0" font-family="none" font-weight="none" font-size="none" text-anchor="none" style="mix-blend-mode: normal" data-fill-palette-color="tertiary"></path><g><path d="M59.234 176.718v0c0.011 0.135 0.021 0.218 0.032 0.25 0.011 0.032 0.088 0.048 0.231 0.048v0h0.352c0.103 0 0.173-0.01 0.212-0.029 0.041-0.019 0.061-0.079 0.061-0.179v0-3.456c0-0.107-0.012-0.177-0.035-0.212-0.024-0.034-0.087-0.051-0.19-0.051v0h-0.513c-0.064 0-0.106 0.005-0.125 0.016-0.017 0.011-0.036 0.037-0.057 0.08v0l-0.25 0.567c-0.058 0.145-0.119 0.216-0.183 0.212-0.064-0.006-0.142-0.05-0.234-0.132v0c-0.321-0.278-0.704-0.498-1.151-0.66-0.445-0.162-0.921-0.244-1.43-0.244v0c-0.524 0-1.017 0.065-1.481 0.196-0.466 0.133-0.876 0.334-1.231 0.606-0.355 0.271-0.633 0.613-0.834 1.026-0.201 0.41-0.301 0.897-0.301 1.459v0c0 0.641 0.127 1.159 0.381 1.554 0.254 0.395 0.591 0.71 1.01 0.943 0.419 0.231 0.88 0.418 1.382 0.561 0.502 0.141 1.005 0.275 1.507 0.401 0.502 0.124 0.963 0.279 1.382 0.465 0.421 0.184 0.758 0.432 1.01 0.743 0.254 0.312 0.382 0.733 0.381 1.264v0c0 0.368-0.103 0.736-0.308 1.106-0.205 0.368-0.531 0.673-0.978 0.917-0.447 0.244-1.033 0.365-1.76 0.365v0c-0.727 0-1.349-0.165-1.866-0.494-0.519-0.329-0.924-0.742-1.215-1.237-0.291-0.498-0.461-1-0.509-1.507v0c-0.004-0.092-0.021-0.16-0.052-0.205-0.03-0.045-0.098-0.067-0.205-0.067v0h-0.336c-0.111 0-0.19 0.01-0.238 0.028-0.045 0.017-0.067 0.082-0.067 0.196v0 3.671c0 0.118 0.02 0.192 0.061 0.224 0.041 0.032 0.122 0.048 0.244 0.048v0h0.25c0.154 0 0.251-0.011 0.291-0.032 0.041-0.021 0.082-0.085 0.125-0.192v0l0.247-0.619c0.064-0.16 0.121-0.246 0.17-0.256 0.047-0.011 0.129 0.037 0.247 0.144v0c0.363 0.321 0.806 0.587 1.327 0.798 0.522 0.212 1.084 0.317 1.687 0.318v0c0.915 0 1.695-0.144 2.34-0.433 0.648-0.289 1.14-0.703 1.478-1.244 0.34-0.539 0.51-1.182 0.51-1.93v0c0-0.69-0.127-1.25-0.382-1.68-0.252-0.43-0.589-0.773-1.01-1.029-0.419-0.256-0.88-0.463-1.381-0.619-0.502-0.154-1.005-0.294-1.507-0.42-0.502-0.126-0.963-0.271-1.382-0.436-0.419-0.167-0.756-0.392-1.01-0.676-0.254-0.286-0.382-0.67-0.381-1.151v0c0-0.556 0.196-1.026 0.586-1.411 0.389-0.385 1.048-0.577 1.978-0.577v0c0.577 0 1.093 0.127 1.549 0.381 0.453 0.252 0.818 0.602 1.093 1.049 0.276 0.447 0.435 0.961 0.478 1.542zM62.087 181.104v0c0 0.748 0.142 1.438 0.427 2.071 0.286 0.633 0.707 1.14 1.263 1.523 0.556 0.383 1.236 0.574 2.042 0.573v0c0.68 0 1.257-0.118 1.731-0.352 0.477-0.235 0.865-0.56 1.164-0.975 0.299-0.415 0.524-0.894 0.673-1.439v0c0.017-0.058 0.015-0.1-0.006-0.129-0.021-0.026-0.073-0.038-0.154-0.038v0h-0.465c-0.079 0-0.129 0.017-0.151 0.051-0.021 0.034-0.043 0.081-0.064 0.141v0c-0.214 0.588-0.531 1.06-0.952 1.417-0.419 0.359-0.946 0.539-1.581 0.539v0c-0.551 0-0.997-0.154-1.336-0.462-0.338-0.308-0.585-0.715-0.741-1.221-0.156-0.509-0.234-1.057-0.234-1.645v0c0-0.09 0.024-0.151 0.07-0.183 0.045-0.032 0.11-0.048 0.196-0.048v0h5.155c0.111 0 0.187-0.012 0.228-0.035 0.041-0.026 0.061-0.092 0.061-0.199v0c0-0.378-0.037-0.761-0.112-1.147-0.075-0.389-0.196-0.758-0.363-1.107-0.165-0.351-0.383-0.664-0.654-0.939-0.269-0.276-0.597-0.492-0.984-0.648-0.387-0.158-0.842-0.237-1.366-0.237v0c-0.861 0-1.576 0.197-2.145 0.59-0.571 0.391-0.997 0.925-1.279 1.603-0.282 0.675-0.423 1.441-0.423 2.296zM67.585 180.238h-3.622c-0.098 0-0.16-0.014-0.186-0.042-0.028-0.026-0.042-0.079-0.042-0.16v0c0-0.421 0.08-0.84 0.24-1.257 0.16-0.417 0.404-0.764 0.731-1.042 0.327-0.278 0.736-0.417 1.228-0.416v0c0.325 0 0.605 0.093 0.84 0.279 0.235 0.188 0.431 0.427 0.587 0.718 0.154 0.291 0.268 0.595 0.343 0.913 0.075 0.318 0.112 0.611 0.112 0.879v0c0 0.053-0.012 0.088-0.035 0.102-0.024 0.017-0.089 0.026-0.196 0.026zM70.872 180.943v0c0 0.801 0.14 1.529 0.419 2.184 0.28 0.654 0.712 1.176 1.296 1.564 0.581 0.387 1.329 0.58 2.244 0.58v0c0.631 0 1.168-0.119 1.613-0.355 0.447-0.239 0.818-0.569 1.112-0.988 0.293-0.419 0.525-0.901 0.696-1.446v0c0.021-0.058 0.022-0.096 0.003-0.115-0.017-0.019-0.068-0.029-0.154-0.029v0h-0.497c-0.075 0-0.126 0.012-0.154 0.035-0.026 0.024-0.049 0.062-0.07 0.116v0c-0.209 0.598-0.523 1.081-0.94 1.449-0.417 0.365-0.943 0.548-1.577 0.548v0c-0.583 0-1.048-0.169-1.395-0.507-0.348-0.336-0.598-0.774-0.75-1.314-0.152-0.539-0.228-1.112-0.227-1.722v0c0-0.609 0.089-1.186 0.266-1.731 0.18-0.545 0.456-0.989 0.83-1.33 0.374-0.342 0.853-0.513 1.436-0.513v0c0.432 0 0.798 0.068 1.1 0.205 0.303 0.135 0.455 0.312 0.455 0.532v0c0 0.122-0.043 0.223-0.128 0.305-0.085 0.079-0.171 0.171-0.257 0.275-0.085 0.105-0.128 0.253-0.128 0.446v0c0 0.293 0.098 0.522 0.295 0.686 0.199 0.162 0.405 0.244 0.619 0.244v0c0.235 0 0.465-0.08 0.689-0.241 0.224-0.16 0.337-0.433 0.337-0.817v0c0-0.438-0.126-0.838-0.378-1.199-0.25-0.361-0.61-0.65-1.081-0.866-0.47-0.216-1.031-0.324-1.683-0.324v0c-0.648 0-1.218 0.111-1.712 0.334-0.494 0.22-0.91 0.53-1.25 0.929-0.34 0.398-0.596 0.857-0.77 1.379-0.173 0.519-0.26 1.081-0.259 1.686zM80.457 177.92v4.771c0 0.571 0.075 1.047 0.225 1.429 0.15 0.383 0.412 0.67 0.788 0.863 0.376 0.192 0.904 0.289 1.584 0.288v0c0.699 0 1.266-0.138 1.703-0.413 0.436-0.276 0.782-0.627 1.038-1.055v0c0.058-0.096 0.104-0.128 0.138-0.096 0.036 0.032 0.054 0.075 0.055 0.128v0 0.972c0 0.122 0.016 0.203 0.048 0.243 0.032 0.041 0.107 0.061 0.224 0.061v0h2.389c0.107 0 0.171-0.019 0.192-0.058 0.021-0.036 0.032-0.108 0.032-0.214v0-0.417c0-0.085-0.027-0.139-0.08-0.16-0.053-0.021-0.118-0.032-0.192-0.033v0h-0.898c-0.124 0-0.201-0.016-0.231-0.048-0.028-0.032-0.042-0.107-0.042-0.224v0-6.941c0-0.092-0.011-0.155-0.032-0.189-0.021-0.034-0.075-0.051-0.16-0.051v0h-2.501c-0.081 0-0.134 0.016-0.157 0.048-0.024 0.032-0.035 0.091-0.035 0.176v0 0.503c0 0.071 0.019 0.113 0.058 0.129 0.041 0.017 0.096 0.026 0.166 0.025v0h0.882c0.118 0 0.203 0.013 0.257 0.039 0.053 0.028 0.08 0.106 0.08 0.234v0 3.382c0 0.549-0.105 1.069-0.314 1.558-0.207 0.489-0.503 0.886-0.889 1.19-0.385 0.306-0.839 0.458-1.362 0.458v0c-0.53 0-0.917-0.186-1.161-0.558-0.242-0.372-0.362-0.854-0.362-1.446v0-5.492c0-0.118-0.02-0.188-0.061-0.211-0.041-0.024-0.122-0.035-0.243-0.035v0h-2.293c-0.118 0-0.196 0.017-0.234 0.051-0.036 0.034-0.054 0.113-0.054 0.237v0 0.369c0 0.107 0.021 0.171 0.064 0.192 0.043 0.021 0.118 0.032 0.224 0.032v0h0.946c0.096 0 0.155 0.018 0.176 0.055 0.021 0.038 0.032 0.108 0.032 0.208zM91.316 177.962v0 5.985c0 0.118-0.024 0.195-0.07 0.231-0.049 0.034-0.135 0.051-0.257 0.051v0h-0.891c-0.079 0-0.137 0.015-0.173 0.045-0.034 0.028-0.051 0.088-0.052 0.18v0 0.503c0 0.071 0.02 0.113 0.061 0.128 0.041 0.017 0.095 0.026 0.164 0.026v0h3.895c0.092 0 0.15-0.017 0.173-0.051 0.024-0.036 0.035-0.103 0.035-0.199v0-0.359c0-0.103-0.01-0.173-0.028-0.212-0.017-0.041-0.077-0.061-0.18-0.061v0h-0.978c-0.122 0-0.196-0.025-0.221-0.073-0.024-0.047-0.035-0.133-0.035-0.257v0-3.324c0-0.551 0.081-1.069 0.243-1.552 0.165-0.483 0.389-0.874 0.674-1.173 0.286-0.299 0.611-0.449 0.974-0.449v0c0.192 0 0.321 0.02 0.385 0.061 0.064 0.038 0.096 0.098 0.096 0.179v0c0 0.064-0.031 0.127-0.093 0.189-0.06 0.06-0.121 0.142-0.183 0.247-0.062 0.105-0.093 0.253-0.092 0.446v0c0 0.246 0.095 0.443 0.285 0.593 0.19 0.15 0.421 0.224 0.692 0.224v0c0.188 0 0.357-0.054 0.507-0.163 0.15-0.111 0.268-0.259 0.356-0.443 0.088-0.184 0.131-0.388 0.131-0.612v0c0-0.466-0.176-0.834-0.529-1.103-0.353-0.269-0.753-0.404-1.202-0.404v0c-0.524 0-0.952 0.119-1.286 0.356-0.333 0.237-0.596 0.538-0.788 0.901v0c-0.071 0.135-0.116 0.197-0.138 0.186-0.021-0.011-0.032-0.083-0.032-0.218v0-0.84c0-0.103-0.026-0.166-0.077-0.189-0.049-0.024-0.12-0.035-0.212-0.035v0h-2.34c-0.111 0-0.182 0.018-0.212 0.054-0.03 0.038-0.045 0.113-0.045 0.224v0 0.299c0 0.118 0.011 0.198 0.032 0.24 0.021 0.043 0.091 0.064 0.209 0.064v0h0.914c0.124 0 0.203 0.018 0.237 0.055 0.034 0.038 0.051 0.122 0.051 0.25zM97.657 181.104v0c0 0.748 0.142 1.438 0.427 2.071 0.286 0.633 0.707 1.14 1.263 1.523 0.556 0.383 1.238 0.574 2.045 0.573v0c0.678 0 1.255-0.118 1.732-0.352 0.474-0.235 0.861-0.56 1.16-0.975 0.299-0.415 0.524-0.894 0.674-1.439v0c0.017-0.058 0.015-0.1-0.007-0.129-0.021-0.026-0.073-0.038-0.154-0.038v0h-0.465c-0.079 0-0.129 0.017-0.15 0.051-0.021 0.034-0.043 0.081-0.064 0.141v0c-0.214 0.588-0.531 1.06-0.953 1.417-0.419 0.359-0.946 0.539-1.58 0.539v0c-0.551 0-0.997-0.154-1.337-0.462-0.338-0.308-0.585-0.715-0.741-1.221-0.154-0.509-0.231-1.057-0.23-1.645v0c0-0.09 0.022-0.151 0.067-0.183 0.045-0.032 0.11-0.048 0.195-0.048v0h5.156c0.111 0 0.187-0.012 0.227-0.035 0.041-0.026 0.061-0.092 0.061-0.199v0c0-0.378-0.037-0.761-0.112-1.147-0.075-0.389-0.196-0.758-0.362-1.107-0.165-0.351-0.383-0.664-0.654-0.939-0.269-0.276-0.597-0.492-0.985-0.648-0.387-0.158-0.842-0.237-1.365-0.237v0c-0.861 0-1.576 0.197-2.145 0.59-0.569 0.391-0.995 0.925-1.279 1.603-0.282 0.675-0.423 1.441-0.424 2.296zM103.156 180.238h-3.623c-0.096 0-0.158-0.014-0.186-0.042-0.026-0.026-0.038-0.079-0.038-0.16v0c0-0.421 0.08-0.84 0.24-1.257 0.16-0.417 0.403-0.764 0.728-1.042 0.327-0.278 0.736-0.417 1.228-0.416v0c0.325 0 0.605 0.093 0.84 0.279 0.235 0.188 0.431 0.427 0.586 0.718 0.154 0.291 0.268 0.595 0.343 0.913 0.075 0.318 0.112 0.611 0.113 0.879v0c0 0.053-0.012 0.088-0.036 0.102-0.024 0.017-0.089 0.026-0.195 0.026zM106.641 184.31v0c0 0.175 0.044 0.337 0.131 0.484 0.09 0.147 0.206 0.264 0.35 0.349 0.145 0.085 0.306 0.128 0.48 0.128v0c0.177 0 0.339-0.043 0.485-0.128 0.147-0.085 0.264-0.202 0.349-0.349 0.085-0.147 0.128-0.309 0.128-0.484v0c0-0.177-0.043-0.338-0.128-0.481-0.085-0.143-0.202-0.26-0.349-0.35-0.145-0.088-0.307-0.131-0.485-0.131v0c-0.175 0-0.336 0.044-0.48 0.131-0.143 0.09-0.26 0.206-0.35 0.35-0.088 0.143-0.131 0.303-0.131 0.481zM125.412 174.313l-3.335 8.105c-0.085 0.207-0.159 0.367-0.221 0.478-0.06 0.109-0.12 0.164-0.179 0.163-0.058 0-0.123-0.062-0.196-0.186-0.073-0.122-0.162-0.314-0.269-0.577v0l-3.19-7.918c-0.058-0.15-0.073-0.254-0.045-0.315 0.03-0.062 0.16-0.093 0.391-0.093v0h0.85c0.165 0 0.267-0.022 0.307-0.067 0.041-0.047 0.061-0.156 0.061-0.327v0-0.112c0-0.154-0.014-0.254-0.041-0.302-0.026-0.049-0.113-0.074-0.263-0.073v0h-4.681c-0.128 0-0.212 0.018-0.25 0.054-0.036 0.038-0.054 0.125-0.054 0.26v0 0.253c0 0.124 0.013 0.207 0.038 0.25 0.028 0.043 0.1 0.064 0.218 0.064v0h1.25c0.16 0 0.258 0.015 0.292 0.045 0.034 0.028 0.073 0.095 0.116 0.202v0l4.53 10.83c0.043 0.107 0.094 0.185 0.153 0.234 0.062 0.047 0.173 0.071 0.334 0.071v0h0.24c0.096 0 0.169-0.013 0.218-0.039 0.047-0.028 0.085-0.067 0.116-0.119 0.03-0.049 0.056-0.104 0.077-0.163v0l4.414-10.718c0.049-0.118 0.102-0.204 0.157-0.259 0.056-0.056 0.172-0.083 0.35-0.084v0h1.064c0.107 0 0.17-0.022 0.189-0.067 0.019-0.047 0.029-0.121 0.029-0.221v0-0.298c0-0.111-0.011-0.188-0.032-0.231-0.021-0.043-0.089-0.064-0.202-0.064v0h-4.023c-0.096 0-0.159 0.016-0.189 0.048-0.028 0.032-0.042 0.098-0.042 0.199v0 0.394c0 0.107 0.018 0.173 0.054 0.199 0.038 0.028 0.113 0.042 0.225 0.041v0h1.138c0.224 0 0.362 0.02 0.413 0.061 0.051 0.038 0.047 0.133-0.012 0.282zM127.633 181.104v0c0 0.748 0.142 1.438 0.427 2.071 0.286 0.633 0.707 1.14 1.263 1.523 0.556 0.383 1.238 0.574 2.045 0.573v0c0.678 0 1.255-0.118 1.732-0.352 0.474-0.235 0.861-0.56 1.16-0.975 0.299-0.415 0.524-0.894 0.673-1.439v0c0.017-0.058 0.015-0.1-0.006-0.129-0.021-0.026-0.073-0.038-0.154-0.038v0h-0.465c-0.079 0-0.129 0.017-0.15 0.051-0.021 0.034-0.043 0.081-0.065 0.141v0c-0.214 0.588-0.531 1.06-0.952 1.417-0.419 0.359-0.946 0.539-1.58 0.539v0c-0.551 0-0.997-0.154-1.337-0.462-0.338-0.308-0.585-0.715-0.741-1.221-0.154-0.509-0.231-1.057-0.231-1.645v0c0-0.09 0.022-0.151 0.068-0.183 0.045-0.032 0.11-0.048 0.195-0.048v0h5.156c0.111 0 0.187-0.012 0.227-0.035 0.041-0.026 0.061-0.092 0.061-0.199v0c0-0.378-0.037-0.761-0.112-1.147-0.075-0.389-0.196-0.758-0.362-1.107-0.165-0.351-0.383-0.664-0.654-0.939-0.269-0.276-0.597-0.492-0.985-0.648-0.387-0.158-0.842-0.237-1.365-0.237v0c-0.861 0-1.576 0.197-2.145 0.59-0.569 0.391-0.995 0.925-1.279 1.603-0.282 0.675-0.423 1.441-0.424 2.296zM133.132 180.238h-3.623c-0.096 0-0.158-0.014-0.186-0.042-0.026-0.026-0.038-0.079-0.039-0.16v0c0-0.421 0.08-0.84 0.241-1.257 0.16-0.417 0.403-0.764 0.728-1.042 0.327-0.278 0.736-0.417 1.228-0.416v0c0.325 0 0.605 0.093 0.84 0.279 0.235 0.188 0.431 0.427 0.586 0.718 0.154 0.291 0.268 0.595 0.343 0.913 0.075 0.318 0.112 0.611 0.112 0.879v0c0 0.053-0.012 0.088-0.035 0.102-0.024 0.017-0.089 0.026-0.195 0.026zM137.546 177.962v0 5.985c0 0.118-0.025 0.195-0.073 0.231-0.047 0.034-0.131 0.051-0.254 0.051v0h-0.891c-0.081 0-0.139 0.015-0.173 0.045-0.034 0.028-0.051 0.088-0.051 0.18v0 0.503c0 0.071 0.02 0.113 0.061 0.128 0.041 0.017 0.095 0.026 0.163 0.026v0h3.895c0.09 0 0.147-0.017 0.173-0.051 0.024-0.036 0.035-0.103 0.036-0.199v0-0.359c0-0.103-0.01-0.173-0.029-0.212-0.019-0.041-0.079-0.061-0.18-0.061v0h-0.978c-0.122 0-0.196-0.025-0.221-0.073-0.024-0.047-0.035-0.133-0.035-0.257v0-3.324c0-0.551 0.081-1.069 0.244-1.552 0.162-0.483 0.387-0.874 0.673-1.173 0.286-0.299 0.611-0.449 0.975-0.449v0c0.192 0 0.321 0.02 0.384 0.061 0.064 0.038 0.096 0.098 0.096 0.179v0c0 0.064-0.031 0.127-0.093 0.189-0.062 0.06-0.123 0.142-0.182 0.247-0.062 0.105-0.093 0.253-0.093 0.446v0c0 0.246 0.095 0.443 0.285 0.593 0.188 0.15 0.419 0.224 0.693 0.224v0c0.188 0 0.357-0.054 0.506-0.163 0.147-0.111 0.266-0.259 0.356-0.443 0.088-0.184 0.131-0.388 0.131-0.612v0c0-0.466-0.176-0.834-0.529-1.103-0.353-0.269-0.753-0.404-1.202-0.404v0c-0.524 0-0.952 0.119-1.285 0.356-0.333 0.237-0.597 0.538-0.792 0.901v0c-0.068 0.135-0.113 0.197-0.135 0.186-0.021-0.011-0.032-0.083-0.032-0.218v0-0.84c0-0.103-0.026-0.166-0.077-0.189-0.051-0.024-0.122-0.035-0.212-0.035v0h-2.34c-0.113 0-0.184 0.018-0.211 0.054-0.03 0.038-0.045 0.113-0.045 0.224v0 0.299c0 0.118 0.011 0.198 0.032 0.24 0.021 0.043 0.091 0.064 0.208 0.064v0h0.914c0.124 0 0.203 0.018 0.237 0.055 0.034 0.038 0.051 0.122 0.051 0.25zM144.968 173.89v0c0 0.263 0.095 0.488 0.285 0.677 0.188 0.19 0.414 0.285 0.677 0.285v0c0.267 0 0.494-0.095 0.68-0.285 0.188-0.188 0.282-0.414 0.282-0.677v0c0-0.267-0.094-0.495-0.282-0.683-0.186-0.186-0.412-0.279-0.68-0.279v0c-0.263 0-0.488 0.093-0.677 0.279-0.19 0.188-0.285 0.416-0.285 0.683zM144.013 177.657h1.083c0.128 0 0.192 0.064 0.193 0.193v0 6.155c0 0.085-0.009 0.144-0.026 0.176-0.015 0.032-0.068 0.048-0.16 0.048v0h-0.994c-0.096 0-0.164 0.013-0.202 0.039-0.041 0.028-0.061 0.095-0.061 0.202v0 0.449c0 0.085 0.018 0.139 0.055 0.16 0.038 0.021 0.103 0.032 0.192 0.032v0h3.927c0.075 0 0.12-0.014 0.135-0.042 0.013-0.026 0.019-0.076 0.019-0.15v0-0.529c0-0.075-0.014-0.121-0.042-0.138-0.026-0.015-0.076-0.022-0.15-0.023v0h-1.084c-0.062 0-0.106-0.015-0.131-0.044-0.024-0.03-0.035-0.079-0.036-0.148v0-7.095c0-0.068-0.01-0.113-0.028-0.134-0.019-0.021-0.061-0.032-0.125-0.032v0h-2.54c-0.128 0-0.192 0.069-0.192 0.208v0 0.481c0 0.079 0.007 0.131 0.022 0.157 0.017 0.024 0.065 0.035 0.145 0.035zM151.717 183.941v-6.043c0-0.092 0.012-0.155 0.035-0.189 0.024-0.034 0.078-0.051 0.164-0.052v0h1.795c0.113 0 0.183-0.011 0.208-0.032 0.028-0.021 0.042-0.089 0.042-0.202v0-0.407c0-0.118-0.021-0.187-0.064-0.208-0.043-0.021-0.118-0.032-0.225-0.032v0h-1.756c-0.085 0-0.14-0.017-0.164-0.052-0.024-0.036-0.035-0.094-0.035-0.173v0-0.256c0-0.68 0.056-1.251 0.166-1.716 0.113-0.464 0.298-0.815 0.555-1.054 0.256-0.237 0.598-0.356 1.026-0.356v0c0.417 0 0.709 0.048 0.875 0.144 0.165 0.096 0.247 0.192 0.247 0.289v0c0 0.107-0.028 0.199-0.083 0.275-0.056 0.077-0.112 0.162-0.17 0.257-0.056 0.094-0.083 0.221-0.084 0.381v0c0 0.224 0.085 0.408 0.257 0.552 0.171 0.145 0.395 0.218 0.673 0.218v0c0.282 0 0.511-0.091 0.686-0.273 0.173-0.182 0.26-0.443 0.26-0.785v0c0-0.306-0.112-0.594-0.337-0.866-0.224-0.274-0.539-0.494-0.942-0.66-0.404-0.169-0.875-0.253-1.414-0.253v0c-0.695 0-1.276 0.145-1.744 0.436-0.468 0.293-0.821 0.7-1.058 1.221-0.237 0.524-0.356 1.136-0.356 1.837v0 0.609c0 0.1-0.011 0.164-0.032 0.189-0.021 0.024-0.08 0.035-0.176 0.036v0h-1.017c-0.081 0-0.138 0.011-0.17 0.032-0.032 0.021-0.048 0.075-0.048 0.16v0 0.497c0 0.085 0.013 0.139 0.039 0.16 0.028 0.021 0.081 0.032 0.16 0.032v0h1.036c0.1 0 0.16 0.02 0.179 0.061 0.019 0.038 0.029 0.109 0.029 0.212v0 6.081c0 0.081-0.007 0.138-0.022 0.17-0.017 0.032-0.068 0.048-0.154 0.048v0h-1.042c-0.071 0-0.125 0.01-0.164 0.029-0.041 0.017-0.061 0.066-0.061 0.148v0 0.497c0 0.085 0.01 0.141 0.029 0.166 0.019 0.028 0.071 0.042 0.154 0.042v0h4.37c0.096 0 0.162-0.015 0.199-0.045 0.038-0.03 0.058-0.095 0.057-0.195v0-0.465c0-0.085-0.033-0.137-0.099-0.154-0.068-0.015-0.14-0.022-0.215-0.022v0h-1.346c-0.128 0-0.204-0.016-0.228-0.049-0.024-0.032-0.035-0.112-0.035-0.24zM155.211 187.211v0c0 0.357 0.079 0.694 0.237 1.01 0.156 0.316 0.382 0.572 0.677 0.766 0.293 0.195 0.645 0.292 1.058 0.292v0c0.31 0 0.642-0.065 0.997-0.196 0.355-0.13 0.705-0.379 1.052-0.747 0.344-0.365 0.655-0.896 0.932-1.59v0l3.473-8.752c0.053-0.128 0.095-0.217 0.125-0.266 0.034-0.047 0.141-0.071 0.32-0.071v0h0.657c0.124 0 0.197-0.025 0.218-0.074 0.021-0.047 0.032-0.129 0.032-0.246v0-0.369c0-0.092-0.018-0.146-0.054-0.164-0.038-0.019-0.104-0.029-0.196-0.028v0h-2.866c-0.135 0-0.223 0.018-0.266 0.054-0.043 0.038-0.064 0.127-0.064 0.266v0 0.273c0 0.107 0.015 0.182 0.045 0.224 0.03 0.043 0.104 0.064 0.221 0.064v0h0.574c0.171 0 0.269 0.016 0.295 0.048 0.024 0.032 0.014 0.107-0.029 0.225v0l-1.859 4.729c-0.068 0.186-0.122 0.327-0.161 0.423-0.038 0.096-0.078 0.144-0.118 0.144v0c-0.034 0-0.071-0.038-0.109-0.115-0.041-0.077-0.098-0.196-0.173-0.356v0l-2.18-4.857c-0.053-0.113-0.061-0.182-0.023-0.206 0.036-0.024 0.137-0.035 0.301-0.035v0h0.757c0.154 0 0.249-0.02 0.285-0.061 0.038-0.041 0.058-0.141 0.058-0.301v0-0.199c0-0.139-0.017-0.228-0.051-0.266-0.034-0.036-0.116-0.054-0.247-0.054v0h-3.828c-0.077 0-0.133 0.007-0.167 0.022-0.034 0.017-0.051 0.063-0.051 0.138v0 0.449c0 0.111 0.017 0.185 0.051 0.221 0.034 0.034 0.11 0.051 0.228 0.051v0h0.689c0.16 0 0.259 0.016 0.295 0.048 0.034 0.032 0.075 0.102 0.122 0.209v0l3.151 6.957c0.075 0.16 0.113 0.282 0.116 0.365 0.002 0.083-0.028 0.207-0.09 0.372v0l-0.186 0.465c-0.25 0.641-0.512 1.136-0.785 1.484-0.271 0.346-0.535 0.587-0.792 0.722-0.259 0.133-0.492 0.199-0.699 0.198v0c-0.263 0-0.472-0.072-0.628-0.214-0.158-0.145-0.237-0.309-0.238-0.491v0c0-0.085 0.022-0.154 0.068-0.205 0.045-0.049 0.102-0.094 0.17-0.135 0.066-0.041 0.133-0.083 0.198-0.128 0.066-0.045 0.123-0.105 0.17-0.18 0.045-0.075 0.067-0.174 0.068-0.298v0c0-0.252-0.074-0.446-0.222-0.58-0.147-0.137-0.341-0.205-0.58-0.205v0c-0.165 0-0.322 0.047-0.471 0.141-0.152 0.094-0.274 0.228-0.366 0.401-0.094 0.173-0.141 0.383-0.141 0.628zM164.781 184.31v0c0 0.175 0.044 0.337 0.132 0.484 0.088 0.147 0.204 0.264 0.349 0.349 0.145 0.085 0.306 0.128 0.481 0.128v0c0.175 0 0.337-0.043 0.484-0.128 0.147-0.085 0.264-0.202 0.349-0.349 0.085-0.147 0.128-0.309 0.129-0.484v0c0-0.177-0.043-0.338-0.129-0.481-0.085-0.143-0.202-0.26-0.349-0.35-0.147-0.088-0.309-0.131-0.484-0.131v0c-0.175 0-0.336 0.044-0.481 0.131-0.145 0.09-0.262 0.206-0.349 0.35-0.088 0.143-0.131 0.303-0.132 0.481zM175.8 184.508v0.273c0 0.15 0.024 0.243 0.071 0.279 0.045 0.034 0.144 0.051 0.298 0.051v0h4.86c0.143 0 0.256-0.016 0.34-0.048 0.081-0.032 0.122-0.128 0.122-0.289v0-0.153c0-0.165-0.015-0.271-0.045-0.321-0.034-0.047-0.131-0.071-0.292-0.071v0h-1.311c-0.199 0-0.321-0.026-0.366-0.076-0.047-0.051-0.071-0.177-0.07-0.379v0-9.541c0-0.143 0.016-0.236 0.048-0.279 0.034-0.043 0.12-0.064 0.256-0.064v0h0.818c0.695 0 1.236 0.088 1.625 0.263 0.387 0.177 0.661 0.477 0.824 0.898 0.162 0.423 0.252 1.006 0.27 1.747v0c0.004 0.128 0.02 0.223 0.048 0.285 0.026 0.062 0.113 0.093 0.263 0.093v0h0.195c0.122 0 0.203-0.012 0.244-0.035 0.038-0.026 0.058-0.097 0.057-0.215v0-3.462c0-0.16-0.017-0.263-0.051-0.308-0.034-0.045-0.129-0.067-0.285-0.067v0h-10.099c-0.18 0-0.289 0.025-0.327 0.073-0.038 0.047-0.058 0.164-0.058 0.35v0 3.254c0 0.118 0.013 0.216 0.039 0.295 0.024 0.077 0.103 0.115 0.237 0.115v0h0.224c0.137 0 0.22-0.025 0.25-0.073 0.03-0.047 0.047-0.133 0.052-0.257v0c0.017-0.752 0.106-1.343 0.266-1.773 0.16-0.432 0.435-0.736 0.824-0.914 0.391-0.18 0.936-0.269 1.635-0.269v0h0.769c0.152 0 0.249 0.021 0.292 0.064 0.041 0.043 0.061 0.141 0.061 0.295v0 9.538c0 0.199-0.024 0.322-0.071 0.369-0.047 0.049-0.168 0.074-0.362 0.073v0h-1.311c-0.12 0-0.206 0.015-0.26 0.045-0.053 0.028-0.08 0.106-0.08 0.234zM186.357 177.962v0 5.985c0 0.118-0.025 0.195-0.073 0.231-0.047 0.034-0.131 0.051-0.254 0.051v0h-0.891c-0.081 0-0.139 0.015-0.173 0.045-0.034 0.028-0.051 0.088-0.051 0.18v0 0.503c0 0.071 0.02 0.113 0.061 0.128 0.041 0.017 0.095 0.026 0.163 0.026v0h3.895c0.09 0 0.147-0.017 0.173-0.051 0.024-0.036 0.035-0.103 0.036-0.199v0-0.359c0-0.103-0.01-0.173-0.029-0.212-0.019-0.041-0.079-0.061-0.18-0.061v0h-0.977c-0.122 0-0.196-0.025-0.222-0.073-0.024-0.047-0.035-0.133-0.035-0.257v0-3.324c0-0.551 0.081-1.069 0.244-1.552 0.162-0.483 0.387-0.874 0.673-1.173 0.286-0.299 0.611-0.449 0.975-0.449v0c0.192 0 0.321 0.02 0.384 0.061 0.064 0.038 0.096 0.098 0.097 0.179v0c0 0.064-0.031 0.127-0.093 0.189-0.062 0.06-0.123 0.142-0.183 0.247-0.062 0.105-0.093 0.253-0.093 0.446v0c0 0.246 0.095 0.443 0.285 0.593 0.188 0.15 0.419 0.224 0.693 0.224v0c0.188 0 0.357-0.054 0.506-0.163 0.147-0.111 0.266-0.259 0.356-0.443 0.088-0.184 0.131-0.388 0.132-0.612v0c0-0.466-0.176-0.834-0.529-1.103-0.353-0.269-0.753-0.404-1.203-0.404v0c-0.524 0-0.952 0.119-1.285 0.356-0.333 0.237-0.597 0.538-0.792 0.901v0c-0.068 0.135-0.113 0.197-0.135 0.186-0.021-0.011-0.032-0.083-0.032-0.218v0-0.84c0-0.103-0.026-0.166-0.077-0.189-0.051-0.024-0.122-0.035-0.211-0.035v0h-2.341c-0.113 0-0.184 0.018-0.211 0.054-0.03 0.038-0.045 0.113-0.045 0.224v0 0.299c0 0.118 0.011 0.198 0.032 0.24 0.021 0.043 0.091 0.064 0.208 0.064v0h0.914c0.124 0 0.203 0.018 0.237 0.055 0.034 0.038 0.051 0.122 0.051 0.25zM192.545 183.139v0c0 0.673 0.236 1.197 0.708 1.571 0.472 0.374 1.064 0.561 1.777 0.561v0c0.566 0 1.015-0.071 1.346-0.211 0.331-0.143 0.582-0.306 0.753-0.487 0.171-0.182 0.299-0.331 0.385-0.449v0c0.075-0.1 0.127-0.151 0.157-0.151 0.028 0 0.05 0.048 0.068 0.144v0c0.021 0.128 0.065 0.283 0.131 0.465 0.066 0.182 0.198 0.342 0.394 0.481 0.195 0.139 0.492 0.208 0.892 0.208v0h0.009c0.218 0 0.431-0.037 0.638-0.112 0.205-0.075 0.398-0.19 0.577-0.346 0.177-0.154 0.328-0.348 0.452-0.584v0c0.036-0.085 0.02-0.15-0.048-0.192v0l-0.288-0.176c-0.071-0.053-0.133-0.035-0.186 0.054v0c-0.139 0.22-0.273 0.362-0.401 0.427-0.128 0.064-0.248 0.096-0.359 0.096v0c-0.113 0-0.211-0.037-0.292-0.112-0.083-0.075-0.125-0.192-0.125-0.353v0-4.825c0-0.434-0.068-0.844-0.205-1.231-0.137-0.387-0.399-0.701-0.785-0.943-0.387-0.239-0.954-0.359-1.703-0.359v0c-0.406 0-0.811 0.049-1.215 0.148-0.404 0.098-0.772 0.242-1.103 0.429-0.331 0.186-0.596 0.416-0.795 0.69-0.201 0.271-0.301 0.581-0.301 0.929v0c0 0.353 0.096 0.595 0.288 0.728 0.192 0.135 0.411 0.202 0.658 0.202v0c0.271 0 0.486-0.087 0.644-0.26 0.158-0.175 0.237-0.399 0.237-0.67v0c0-0.209-0.037-0.354-0.112-0.432-0.075-0.081-0.15-0.144-0.224-0.19-0.075-0.045-0.112-0.115-0.113-0.211v0c0-0.107 0.082-0.208 0.247-0.305 0.167-0.096 0.38-0.174 0.641-0.234 0.263-0.058 0.539-0.087 0.828-0.086v0c0.427 0 0.754 0.081 0.981 0.243 0.227 0.162 0.382 0.386 0.464 0.67 0.083 0.282 0.125 0.603 0.126 0.962v0 0.882c0 0.096-0.012 0.155-0.036 0.176-0.026 0.021-0.083 0.032-0.173 0.032v0h-0.785c-0.919 0-1.686 0.13-2.302 0.391-0.613 0.263-1.075 0.608-1.385 1.036-0.31 0.427-0.465 0.892-0.465 1.394zM194.18 182.899v0c0-0.412 0.08-0.765 0.24-1.058 0.16-0.295 0.424-0.52 0.792-0.676 0.37-0.158 0.865-0.237 1.485-0.238v0h0.833c0.107 0 0.16 0.053 0.161 0.161v0 0.961c0 0.727-0.187 1.295-0.562 1.706-0.374 0.412-0.834 0.619-1.378 0.619v0c-0.402 0-0.764-0.112-1.087-0.337-0.323-0.224-0.484-0.604-0.484-1.138zM201.464 177.657h1.084c0.064 0 0.112 0.007 0.144 0.023 0.032 0.017 0.048 0.054 0.048 0.112v0 6.213c0 0.1-0.019 0.164-0.058 0.189-0.036 0.024-0.108 0.035-0.215 0.035v0h-0.881c-0.103 0-0.176 0.015-0.221 0.045-0.045 0.028-0.067 0.098-0.068 0.212v0 0.369c0 0.1 0.013 0.169 0.039 0.205 0.028 0.034 0.09 0.051 0.186 0.051v0h3.879c0.09 0 0.15-0.016 0.179-0.048 0.03-0.032 0.045-0.096 0.045-0.192v0-0.369c0-0.118-0.02-0.192-0.061-0.224-0.041-0.032-0.114-0.048-0.221-0.049v0h-0.824c-0.124 0-0.211-0.025-0.259-0.073-0.051-0.047-0.077-0.133-0.077-0.257v0-3.324c0-0.551 0.104-1.058 0.311-1.52 0.209-0.462 0.507-0.831 0.891-1.109 0.385-0.278 0.839-0.417 1.362-0.417v0c0.528 0 0.914 0.159 1.158 0.478 0.244 0.316 0.365 0.772 0.365 1.365v0 4.543c0 0.139-0.021 0.227-0.064 0.263-0.043 0.034-0.128 0.051-0.256 0.051v0h-0.924c-0.085 0-0.14 0.016-0.163 0.049-0.024 0.032-0.035 0.094-0.035 0.186v0 0.397c0 0.085 0.007 0.149 0.022 0.189 0.017 0.041 0.068 0.061 0.154 0.061v0h3.902c0.092 0 0.156-0.009 0.192-0.026 0.038-0.015 0.058-0.065 0.058-0.15v0-0.465c0-0.092-0.012-0.155-0.036-0.189-0.026-0.034-0.083-0.051-0.173-0.052v0h-0.946c-0.139 0-0.222-0.026-0.25-0.076-0.026-0.051-0.038-0.146-0.038-0.286v0-4.671c0-0.573-0.075-1.049-0.224-1.43-0.15-0.383-0.412-0.67-0.789-0.862-0.378-0.192-0.906-0.289-1.584-0.289v0c-0.695 0-1.266 0.145-1.715 0.436-0.449 0.291-0.801 0.65-1.058 1.077v0c-0.053 0.085-0.094 0.137-0.122 0.154-0.026 0.015-0.038-0.081-0.038-0.288v0-0.94c0-0.075-0.019-0.14-0.058-0.195-0.036-0.056-0.1-0.083-0.192-0.083v0h-2.485c-0.058 0-0.097 0.015-0.119 0.044-0.021 0.028-0.032 0.074-0.032 0.138v0 0.497c0 0.071 0.011 0.122 0.032 0.154 0.021 0.032 0.066 0.048 0.135 0.048zM217.577 179.267v0c0.026 0.081 0.048 0.14 0.068 0.176 0.017 0.038 0.082 0.058 0.195 0.058v0h0.449c0.09 0 0.151-0.012 0.183-0.036 0.032-0.026 0.048-0.081 0.048-0.166v0-2.459c0-0.15-0.069-0.224-0.209-0.225v0h-0.359c-0.103 0-0.17 0.011-0.202 0.032-0.032 0.021-0.061 0.069-0.086 0.145v0l-0.209 0.631c-0.043 0.145-0.074 0.207-0.093 0.186-0.017-0.021-0.069-0.075-0.157-0.16v0c-0.214-0.22-0.504-0.419-0.872-0.596-0.37-0.18-0.816-0.269-1.34-0.27v0c-0.453 0-0.868 0.092-1.244 0.276-0.378 0.184-0.68 0.451-0.904 0.801-0.224 0.351-0.337 0.777-0.336 1.28v0c0 0.56 0.121 1.006 0.362 1.337 0.239 0.331 0.548 0.588 0.926 0.769 0.376 0.182 0.775 0.328 1.196 0.439 0.423 0.109 0.823 0.221 1.199 0.337 0.376 0.113 0.685 0.269 0.927 0.468 0.239 0.197 0.359 0.48 0.359 0.849v0c0 0.406-0.151 0.729-0.452 0.969-0.301 0.242-0.732 0.362-1.292 0.362v0c-0.445 0-0.83-0.069-1.158-0.208-0.325-0.139-0.6-0.351-0.824-0.635-0.224-0.282-0.406-0.64-0.545-1.074v0c-0.021-0.064-0.047-0.115-0.076-0.154-0.03-0.041-0.09-0.061-0.18-0.061v0h-0.491c-0.09 0-0.15 0.017-0.179 0.051-0.03 0.034-0.045 0.099-0.045 0.196v0 2.468c0 0.081 0.014 0.138 0.042 0.17 0.026 0.032 0.079 0.048 0.16 0.048v0h0.369c0.085 0 0.151-0.017 0.195-0.051 0.045-0.034 0.078-0.081 0.1-0.141v0l0.186-0.577c0.036-0.107 0.079-0.159 0.128-0.157 0.047 0.002 0.113 0.042 0.199 0.119v0c0.246 0.212 0.571 0.405 0.974 0.58 0.404 0.173 0.866 0.26 1.385 0.26v0c0.517 0 0.991-0.103 1.42-0.308 0.43-0.207 0.773-0.507 1.03-0.898 0.256-0.393 0.385-0.868 0.384-1.423v0c0-0.53-0.121-0.951-0.362-1.264-0.244-0.312-0.557-0.555-0.939-0.727-0.38-0.175-0.787-0.32-1.219-0.433-0.43-0.115-0.837-0.235-1.221-0.359-0.385-0.122-0.699-0.286-0.943-0.494-0.244-0.209-0.365-0.501-0.365-0.875v0c0-0.338 0.116-0.609 0.349-0.814 0.233-0.205 0.561-0.308 0.985-0.308v0c0.539 0 1.039 0.162 1.5 0.487 0.462 0.327 0.79 0.787 0.984 1.379zM220.132 183.139v0c0 0.673 0.236 1.197 0.709 1.571 0.472 0.374 1.064 0.561 1.776 0.561v0c0.566 0 1.015-0.071 1.347-0.211 0.331-0.143 0.582-0.306 0.753-0.487 0.171-0.182 0.299-0.331 0.385-0.449v0c0.075-0.1 0.127-0.151 0.157-0.151 0.028 0 0.05 0.048 0.067 0.144v0c0.021 0.128 0.065 0.283 0.132 0.465 0.066 0.182 0.198 0.342 0.394 0.481 0.195 0.139 0.492 0.208 0.891 0.208v0h0.01c0.218 0 0.431-0.037 0.638-0.112 0.205-0.075 0.398-0.19 0.577-0.346 0.177-0.154 0.328-0.348 0.452-0.584v0c0.036-0.085 0.02-0.15-0.048-0.192v0l-0.289-0.176c-0.071-0.053-0.133-0.035-0.186 0.054v0c-0.139 0.22-0.273 0.362-0.4 0.427-0.128 0.064-0.248 0.096-0.36 0.096v0c-0.113 0-0.211-0.037-0.291-0.112-0.083-0.075-0.125-0.192-0.125-0.353v0-4.825c0-0.434-0.068-0.844-0.206-1.231-0.137-0.387-0.399-0.701-0.785-0.943-0.387-0.239-0.954-0.359-1.702-0.359v0c-0.406 0-0.811 0.049-1.215 0.148-0.404 0.098-0.772 0.242-1.103 0.429-0.331 0.186-0.596 0.416-0.795 0.69-0.201 0.271-0.301 0.581-0.302 0.929v0c0 0.353 0.096 0.595 0.289 0.728 0.192 0.135 0.411 0.202 0.657 0.202v0c0.271 0 0.486-0.087 0.644-0.26 0.158-0.175 0.237-0.399 0.238-0.67v0c0-0.209-0.037-0.354-0.113-0.432-0.075-0.081-0.15-0.144-0.224-0.19-0.075-0.045-0.112-0.115-0.112-0.211v0c0-0.107 0.082-0.208 0.247-0.305 0.167-0.096 0.38-0.174 0.641-0.234 0.263-0.058 0.539-0.087 0.827-0.086v0c0.427 0 0.754 0.081 0.981 0.243 0.227 0.162 0.382 0.386 0.465 0.67 0.083 0.282 0.125 0.603 0.125 0.962v0 0.882c0 0.096-0.012 0.155-0.035 0.176-0.026 0.021-0.083 0.032-0.173 0.032v0h-0.786c-0.919 0-1.686 0.13-2.302 0.391-0.613 0.263-1.075 0.608-1.385 1.036-0.31 0.427-0.465 0.892-0.465 1.394zM221.767 182.899v0c0-0.412 0.08-0.765 0.241-1.058 0.16-0.295 0.424-0.52 0.792-0.676 0.37-0.158 0.865-0.237 1.484-0.238v0h0.834c0.107 0 0.16 0.053 0.16 0.161v0 0.961c0 0.727-0.187 1.295-0.561 1.706-0.374 0.412-0.834 0.619-1.379 0.619v0c-0.402 0-0.764-0.112-1.086-0.337-0.323-0.224-0.484-0.604-0.485-1.138zM228.731 180.943v0c0 0.801 0.141 1.529 0.423 2.184 0.28 0.654 0.711 1.176 1.292 1.564 0.583 0.387 1.332 0.58 2.244 0.58v0c0.631 0 1.169-0.119 1.616-0.355 0.447-0.239 0.816-0.569 1.109-0.988 0.295-0.419 0.528-0.901 0.699-1.446v0c0.021-0.058 0.022-0.096 0.003-0.115-0.019-0.019-0.072-0.029-0.157-0.029v0h-0.497c-0.075 0-0.125 0.012-0.15 0.035-0.028 0.024-0.052 0.062-0.074 0.116v0c-0.207 0.598-0.519 1.081-0.936 1.449-0.417 0.365-0.944 0.548-1.581 0.548v0c-0.581 0-1.046-0.169-1.394-0.507-0.346-0.336-0.595-0.774-0.747-1.314-0.154-0.539-0.231-1.112-0.231-1.722v0c0-0.609 0.09-1.186 0.269-1.731 0.18-0.545 0.456-0.989 0.83-1.33 0.374-0.342 0.852-0.513 1.434-0.513v0c0.434 0 0.801 0.068 1.102 0.205 0.301 0.135 0.452 0.312 0.452 0.532v0c0 0.122-0.043 0.223-0.128 0.305-0.085 0.079-0.171 0.171-0.256 0.275-0.085 0.105-0.128 0.253-0.129 0.446v0c0 0.293 0.099 0.522 0.299 0.686 0.197 0.162 0.402 0.244 0.615 0.244v0c0.235 0 0.465-0.08 0.689-0.241 0.224-0.16 0.337-0.433 0.337-0.817v0c0-0.438-0.125-0.838-0.375-1.199-0.252-0.361-0.613-0.65-1.084-0.866-0.47-0.216-1.031-0.324-1.683-0.324v0c-0.645 0-1.215 0.111-1.709 0.334-0.496 0.22-0.913 0.53-1.25 0.929-0.34 0.398-0.596 0.857-0.769 1.379-0.175 0.519-0.263 1.081-0.263 1.686zM242.157 183.547v0c0.026-0.068 0.027-0.116 0.004-0.145-0.024-0.026-0.067-0.049-0.132-0.07v0l-0.256-0.09c-0.085-0.032-0.143-0.04-0.173-0.022-0.03 0.015-0.063 0.063-0.1 0.144v0c-0.139 0.303-0.3 0.538-0.484 0.702-0.186 0.162-0.393 0.244-0.622 0.244v0c-0.214 0-0.385-0.073-0.513-0.218-0.128-0.143-0.192-0.375-0.192-0.696v0-5.476c0-0.122 0.027-0.197 0.08-0.224 0.053-0.026 0.136-0.038 0.247-0.039v0h1.763c0.096 0 0.165-0.01 0.205-0.029 0.041-0.019 0.061-0.077 0.061-0.173v0-0.417c0-0.111-0.017-0.183-0.051-0.214-0.036-0.032-0.108-0.048-0.215-0.048v0h-1.779c-0.1 0-0.177-0.014-0.231-0.042-0.053-0.026-0.08-0.095-0.08-0.209v0-1.76c0-0.156-0.069-0.234-0.209-0.234v0h-0.432c-0.118 0-0.19 0.016-0.218 0.048-0.026 0.032-0.049 0.094-0.071 0.186v0c-0.107 0.464-0.206 0.831-0.298 1.103-0.09 0.274-0.193 0.474-0.311 0.603-0.118 0.128-0.267 0.211-0.449 0.247-0.182 0.038-0.417 0.058-0.705 0.058v0c-0.103 0-0.168 0.01-0.196 0.028-0.03 0.017-0.045 0.077-0.045 0.18v0 0.433c0 0.107 0.018 0.173 0.055 0.199 0.038 0.028 0.113 0.042 0.224 0.041v0h0.956c0.096 0 0.162 0.021 0.198 0.064 0.038 0.043 0.058 0.112 0.058 0.209v0 5.803c0 0.438 0.125 0.809 0.375 1.112 0.252 0.306 0.667 0.458 1.244 0.458v0c0.417 0 0.776-0.079 1.077-0.237 0.301-0.158 0.552-0.371 0.754-0.638 0.201-0.267 0.355-0.561 0.461-0.881zM243.248 184.31v0c0 0.175 0.044 0.337 0.131 0.484 0.088 0.147 0.204 0.264 0.349 0.349 0.143 0.085 0.303 0.128 0.481 0.128v0c0.175 0 0.337-0.043 0.484-0.128 0.147-0.085 0.264-0.202 0.35-0.349 0.085-0.147 0.128-0.309 0.128-0.484v0c0-0.177-0.043-0.338-0.128-0.481-0.085-0.143-0.202-0.26-0.35-0.35-0.147-0.088-0.309-0.131-0.484-0.131v0c-0.177 0-0.338 0.044-0.481 0.131-0.145 0.09-0.262 0.206-0.349 0.35-0.088 0.143-0.131 0.303-0.131 0.481z" fill="#3e2c9a" fill-rule="nonzero" stroke="none" stroke-width="1" stroke-linecap="butt" stroke-linejoin="miter" stroke-miterlimit="10" stroke-dasharray="" stroke-dashoffset="0" font-family="none" font-weight="none" font-size="none" text-anchor="none" style="mix-blend-mode: normal" data-fill-palette-color="secondary" id="text-1"></path></g></g><g transform="matrix(1,0,0,1,29.33176499999999,40.60531864445411)"><svg viewBox="0 0 316.416 43.78593271109182" height="43.78593271109182" width="316.416"><g><svg viewBox="0 0 316.416 43.78593271109182" height="43.78593271109182" width="316.416"><g><svg viewBox="0 0 316.416 43.78593271109182" height="43.78593271109182" width="316.416"><g><svg viewBox="0 0 316.416 43.78593271109182" height="43.78593271109182" width="316.416"><g id="textblocktransform"><svg viewBox="0 0 316.416 43.78593271109182" height="43.78593271109182" width="316.416" id="textblock"><g><svg viewBox="0 0 316.416 43.78593271109182" height="43.78593271109182" width="316.416"><g transform="matrix(1,0,0,1,0,0)"><svg width="316.416" viewBox="0 -32.76 317.55 43.941506024096384" height="43.78593271109182" data-palette-color="#3e2c9a"><path d="M10.25-27.59L10.16-26.9Q14.31-16.6 19.04-6.05L19.04-6.05Q27.93-26.71 27.93-27.98L27.93-27.98Q27.93-28.66 26.95-29.05L26.95-29.05 24.02-29.83 24.02-30.57Q26.32-30.37 29.15-30.37L29.15-30.37Q32.03-30.37 34.18-30.57L34.18-30.57 34.18-29.59Q32.18-29.49 30.96-28.76L30.96-28.76Q30.52-28.47 29.74-27.29L29.74-27.29 29-26.17Q27.69-22.31 23.88-13.16 20.07-4 18.55 0.68L18.55 0.68 16.6 0.73Q14.16-5.22 10.38-13.84 6.59-22.46 5.66-24.8L5.66-24.8Q4.35-28.13 2.73-28.91L2.73-28.91Q1.51-29.49 0-29.83L0-29.83 0-30.57Q2.29-30.37 6.98-30.37L6.98-30.37Q12.01-30.37 14.21-30.57L14.21-30.57 14.21-29.59Q10.89-29.3 10.6-28.76L10.6-28.76Q10.35-28.27 10.25-27.59L10.25-27.59ZM41.55-11.33L41.55-11.33 50.34-11.38Q50.39-12.21 50.39-12.94L50.39-12.94Q50.39-14.45 50.14-15.38L50.14-15.38Q49.75-16.94 48.56-17.94 47.36-18.95 45.6-18.95L45.6-18.95Q43.8-18.95 42.77-16.89 41.75-14.84 41.55-11.33ZM54.69-10.64L41.5-10.6 41.5-9.52Q41.5-6.01 42.8-3.17 44.09-0.34 46.53-0.34L46.53-0.34Q49.36-0.34 51.02-2 52.68-3.66 53.32-5.47L53.32-5.47 54.69-4.49Q53.95-2.64 51.85-0.9 49.75 0.83 46.34 0.83L46.34 0.83Q42.19 0.83 39.43-1.76 36.67-4.35 36.67-9.28L36.67-9.28Q36.67-12.16 37.62-14.33 38.57-16.5 40.16-17.65 41.75-18.8 43.36-19.34 44.97-19.87 46.68-19.87L46.68-19.87Q49.31-19.87 51.58-18.46 53.85-17.04 54.54-13.87L54.54-13.87Q54.73-12.89 54.73-11.91L54.73-11.91Q54.73-11.38 54.69-10.64L54.69-10.64ZM72.7-20.31L72.7-20.31Q74.56-20.31 75.56-19.21 76.56-18.12 76.56-16.06L76.56-16.06Q76.56-14.84 75.73-13.82 74.9-12.79 73.82-12.79L73.82-12.79Q73.04-12.79 72.21-13.48 71.38-14.16 71.33-15.09L71.33-15.09Q71.33-16.16 72.75-17.14L72.75-17.14Q72.6-17.58 72.24-18.02 71.87-18.46 71.09-18.46L71.09-18.46Q69.72-18.46 68.48-16.97 67.23-15.48 66.69-14.01L66.69-14.01 66.16-12.5 66.25-2.05Q66.3-1.07 69.62-0.78L69.62-0.78 69.62 0Q67.57-0.15 64.3-0.15L64.3-0.15Q61.23-0.15 59.22 0L59.22 0 59.22-0.78Q59.96-0.83 61.15-1.27 62.35-1.71 62.35-2.05L62.35-2.05 62.35-18.21Q61.71-18.6 59.22-18.7L59.22-18.7 59.13-19.48Q61.91-19.48 65.77-20.46L65.77-20.46 66.3-14.6Q67.08-16.7 68.7-18.51 70.31-20.31 72.7-20.31ZM85.54-31.3L85.54-31.3Q86.66-31.3 87.59-30.49 88.52-29.69 88.52-28.61L88.52-28.61Q88.52-27.29 87.66-26.44 86.81-25.59 85.54-25.59L85.54-25.59Q84.61-25.59 83.73-26.37 82.85-27.15 82.85-28.32L82.85-28.32Q82.85-29.54 83.71-30.42 84.56-31.3 85.54-31.3ZM87.79-20.61L87.79-20.61Q87.69-12.16 87.69-1.81L87.69-1.81Q87.88-0.83 91.11-0.78L91.11-0.78 91.11 0Q89.1-0.15 85.78-0.15L85.78-0.15Q82.61-0.15 80.71 0L80.71 0 80.71-0.78Q83.64-0.88 83.78-1.81L83.78-1.81 83.78-18.21Q82.27-18.7 80.71-18.7L80.71-18.7 80.71-19.48Q85.1-19.73 87.79-20.61ZM108.78-0.88L108.78 0Q105.9-0.2 102.24-0.2 98.57-0.2 96.18 0L96.18 0 96.18-0.88Q100.33-0.88 100.38-2.15L100.38-2.15 100.58-18.46 96.47-18.46 96.47-19.53 100.58-19.53Q100.58-20.07 100.58-20.61L100.58-20.61Q100.58-32.76 109.07-32.76L109.07-32.76Q111.32-32.76 113.66-31.59 116.01-30.42 116.01-28.52L116.01-28.52Q116.01-27.25 115.32-26.2 114.64-25.15 113.22-25.15L113.22-25.15Q112.25-25.15 111.61-25.9 110.98-26.66 110.98-27.49L110.98-27.49Q110.98-28.13 111.42-28.71 111.86-29.3 112.34-29.49L112.34-29.49 112.78-29.74Q112.73-30.96 111.56-31.47 110.39-31.98 108.93-31.98L108.93-31.98Q106.78-31.98 105.65-30.32L105.65-30.32Q104.48-28.52 104.53-24.17L104.53-24.17Q104.53-22.12 104.58-21.19 104.63-20.26 104.63-19.53L104.63-19.53 109.27-19.53 109.27-18.46 104.63-18.46 104.92-2.15Q104.97-1.51 105.7-1.17 106.44-0.83 107.31-0.83L107.31-0.83Q107.8-0.83 108.78-0.88L108.78-0.88ZM124.21-19.29L124.21-19.29 124.11-18.6Q122.94-18.6 122.47-18.36 122.01-18.12 122.01-17.33L122.01-17.33Q122.01-16.89 122.3-16.02L122.3-16.02 127.23-3.52 132.51-15.72Q132.85-16.55 132.85-17.14L132.85-17.14Q132.85-17.68 132.58-18.02 132.31-18.36 131.7-18.48 131.09-18.6 130.65-18.63 130.21-18.65 129.38-18.65L129.38-18.65 129.48-19.34Q131.19-19.14 133.87-19.14L133.87-19.14Q136.56-19.14 137.78-19.38L137.78-19.38 137.68-18.7Q135.78-18.7 135.34-18.31L135.34-18.31Q134.66-17.68 133.78-15.38L133.78-15.38 124.99 5.52Q123.91 8.11 122.2 9.62L122.2 9.62Q120.3 11.23 117.76 11.18L117.76 11.18Q116.1 11.18 114.56 10.08 113.02 8.98 113.02 7.42 113.02 5.86 113.81 5.1 114.59 4.35 115.66 4.35L115.66 4.35Q116.88 4.35 117.86 4.96 118.84 5.57 118.84 6.74L118.84 6.74Q118.84 8.45 116.88 9.23L116.88 9.23Q117.57 9.77 118.93 9.81L118.93 9.81Q119.71 9.81 121.37 8.35L121.37 8.35Q123.28 6.54 125.18 0.83L125.18 0.83 117.71-16.41Q117.22-17.68 116-18.12L116-18.12Q115.17-18.41 113.22-18.6L113.22-18.6 113.22-19.29Q115.32-19.14 118.35-19.14L118.35-19.14Q122.01-19.14 124.21-19.29ZM149.2-30.42L158.38-30.62Q170.44-7.37 171.08-5.91L171.08-5.91 181.87-30.42 190.27-30.76 190.27-29.79Q189.63-29.74 188.73-29.59 187.82-29.44 186.73-29.03 185.63-28.61 185.63-28.03L185.63-28.03 185.63-2.88 186.02-2.2Q186.41-1.51 187.09-1.12L187.09-1.12Q187.82-0.73 189-0.68L189-0.68 190.17-0.78 190.17 0.1Q187.38 0 183.58 0L183.58 0Q179.33 0 177.08 0.15L177.08 0.15 177.08-0.63Q177.18-0.63 178.25-0.73 179.33-0.83 179.87-1.12L179.87-1.12Q181.18-1.71 181.18-2.69L181.18-2.69 181.18-24.8 169.71 0.68 168.93 0.68 156.09-24.51Q156.09-24.51 156.09-11.67L156.09-11.67Q156.09-6.15 156.09-3.42L156.09-3.42Q156.09-2.54 156.18-2.22 156.28-1.9 156.65-1.68 157.01-1.46 157.26-1.22L157.26-1.22Q158.33-0.83 159.89-0.78L159.89-0.78Q159.94-0.78 160.04-0.78 160.14-0.78 160.19-0.78L160.19-0.78 160.19 0.1Q157.8-0.05 155.01-0.05L155.01-0.05Q151.94-0.05 149.59 0.15L149.59 0.15 149.59-0.63 151.55-0.88Q153.5-1.17 154.08-1.71L154.08-1.71Q154.43-2 154.62-2.49L154.62-2.49 154.77-2.98Q154.87-2.98 154.87-25.88L154.87-25.88Q154.62-27.34 152.81-28.37 151.01-29.39 149.2-29.54L149.2-29.54 149.2-30.42ZM203.94-19.29L203.94-19.29 203.84-18.6Q202.67-18.6 202.2-18.36 201.74-18.12 201.74-17.33L201.74-17.33Q201.74-16.89 202.03-16.02L202.03-16.02 206.96-3.52 212.24-15.72Q212.58-16.55 212.58-17.14L212.58-17.14Q212.58-17.68 212.31-18.02 212.04-18.36 211.43-18.48 210.82-18.6 210.38-18.63 209.94-18.65 209.11-18.65L209.11-18.65 209.21-19.34Q210.92-19.14 213.6-19.14L213.6-19.14Q216.29-19.14 217.51-19.38L217.51-19.38 217.41-18.7Q215.51-18.7 215.07-18.31L215.07-18.31Q214.38-17.68 213.51-15.38L213.51-15.38 204.72 5.52Q203.64 8.11 201.93 9.62L201.93 9.62Q200.03 11.23 197.49 11.18L197.49 11.18Q195.83 11.18 194.29 10.08 192.75 8.98 192.75 7.42 192.75 5.86 193.53 5.1 194.32 4.35 195.39 4.35L195.39 4.35Q196.61 4.35 197.59 4.96 198.56 5.57 198.56 6.74L198.56 6.74Q198.56 8.45 196.61 9.23L196.61 9.23Q197.29 9.77 198.66 9.81L198.66 9.81Q199.44 9.81 201.1 8.35L201.1 8.35Q203.01 6.54 204.91 0.83L204.91 0.83 197.44-16.41Q196.95-17.68 195.73-18.12L195.73-18.12Q194.9-18.41 192.95-18.6L192.95-18.6 192.95-19.29Q195.05-19.14 198.08-19.14L198.08-19.14Q201.74-19.14 203.94-19.29ZM240.5-20.26L240.5-20.26Q243.29-20.26 245.7-18.63 248.12-16.99 248.12-14.6L248.12-14.6Q248.12-12.7 247.14-11.72 246.17-10.74 245.19-10.74L245.19-10.74Q242.46-10.74 242.46-13.38L242.46-13.38Q242.46-14.45 243.09-15.21 243.73-15.97 244.51-15.97L244.51-15.97Q245.39-15.97 246.17-15.28L246.17-15.28Q245.19-19.38 240.4-19.38L240.4-19.38Q238.06-19.38 236.45-16.5 234.84-13.62 234.84-9.28L234.84-9.28Q234.84-6.01 236.57-3.44 238.31-0.88 240.84-0.88L240.84-0.88Q242.41-0.88 243.53-1.37 244.65-1.86 245.34-2.86 246.02-3.86 246.22-4.3 246.41-4.74 246.8-5.76L246.8-5.76 248.17-4.79Q247.44-2.88 245.46-1.07 243.48 0.73 240.4 0.73L240.4 0.73Q235.81 0.73 233.13-2.05 230.44-4.83 230.44-10.25L230.44-10.25Q230.44-12.89 231.47-14.92 232.49-16.94 234.11-18.04 235.72-19.14 237.33-19.7 238.94-20.26 240.5-20.26ZM271.26-4.05L271.26-4.05 271.99-3.61Q271.36 0.34 267.31 0.34L267.31 0.34Q265.65 0.34 264.82-0.76 263.99-1.86 263.84-3.37L263.84-3.37Q262.86-2.25 262.35-1.76 261.84-1.27 260.42-0.42 259.01 0.44 257.59 0.44L257.59 0.44Q255.15 0.44 253.39-0.93 251.63-2.29 251.63-5.27L251.63-5.27Q251.63-6.59 252.19-7.57 252.76-8.54 253.76-9.16 254.76-9.77 255.78-10.16 256.81-10.55 258.18-10.72 259.54-10.89 260.45-10.94 261.35-10.99 262.45-11.01 263.55-11.04 263.64-11.04L263.64-11.04Q263.79-11.04 263.79-14.65L263.79-14.65Q263.79-19.29 259.54-19.29L259.54-19.29Q258.08-19.29 257.2-18.65 256.32-18.02 256.12-17.14L256.12-17.14Q257.54-17.14 257.54-14.99L257.54-14.99Q257.54-13.67 256.66-13.11 255.78-12.55 254.95-12.55L254.95-12.55Q254.03-12.55 253.29-13.4 252.56-14.26 252.56-15.28L252.56-15.28Q252.56-17.09 254.86-18.8L254.86-18.8Q256.71-20.21 259.98-20.21L259.98-20.21Q263.06-20.21 265.45-18.31 267.84-16.41 267.84-13.13L267.84-13.13Q267.84-11.52 267.75-8.64 267.65-5.76 267.65-4.49L267.65-4.49Q267.65-1.22 269.16-1.27L269.16-1.27Q270.04-1.27 270.48-1.9 270.92-2.54 271.26-4.05ZM263.64-4.59L263.64-4.59 263.64-10.35Q261.94-10.21 260.49-10.03 259.05-9.86 258.03-9.5 257-9.13 256.42-8.25 255.83-7.37 255.83-5.81L255.83-5.81Q255.83-3.71 256.88-2.73 257.93-1.76 259.54-1.76L259.54-1.76Q262.08-1.76 263.64-4.59ZM288.5-20.31L288.5-20.31Q290.35-20.31 291.35-19.21 292.35-18.12 292.35-16.06L292.35-16.06Q292.35-14.84 291.52-13.82 290.69-12.79 289.62-12.79L289.62-12.79Q288.84-12.79 288.01-13.48 287.18-14.16 287.13-15.09L287.13-15.09Q287.13-16.16 288.54-17.14L288.54-17.14Q288.4-17.58 288.03-18.02 287.67-18.46 286.88-18.46L286.88-18.46Q285.52-18.46 284.27-16.97 283.03-15.48 282.49-14.01L282.49-14.01 281.95-12.5 282.05-2.05Q282.1-1.07 285.42-0.78L285.42-0.78 285.42 0Q283.37-0.15 280.1-0.15L280.1-0.15Q277.02-0.15 275.02 0L275.02 0 275.02-0.78Q275.75-0.83 276.95-1.27 278.14-1.71 278.14-2.05L278.14-2.05 278.14-18.21Q277.51-18.6 275.02-18.7L275.02-18.7 274.92-19.48Q277.7-19.48 281.56-20.46L281.56-20.46 282.1-14.6Q282.88-16.7 284.49-18.51 286.1-20.31 288.5-20.31ZM315.01-32.03L315.01-32.03Q314.76-23.78 314.71-12.94L314.71-12.94Q314.71-5.52 314.86-1.61L314.86-1.61Q314.86-1.27 315.25-1.05 315.64-0.83 316.03-0.76 316.42-0.68 316.94-0.63 317.45-0.59 317.55-0.59L317.55-0.59 317.55 0Q312.47 0.2 311.3 0.49L311.3 0.49 310.91-3.08Q309.83-1.71 308.12-0.71 306.41 0.29 304.7 0.29L304.7 0.29Q300.85 0.29 298.43-2.42 296.01-5.13 296.01-9.52L296.01-9.52Q296.01-14.16 298.75-17.14 301.48-20.12 305.73-20.12L305.73-20.12Q307.05-20.12 308.12-19.63 309.2-19.14 309.71-18.6 310.22-18.07 310.51-17.58L310.51-17.58 310.81-17.09 310.81-29.25Q310.61-30.22 307.29-30.27L307.29-30.27 307.34-31.1Q312.32-31.1 315.01-32.03ZM310.47-6.4L310.47-6.4 310.81-10.89 310.56-15.28 310.32-15.92Q310.03-16.46 309.54-17.19 309.05-17.92 308.02-18.48 307-19.04 305.78-19.04L305.78-19.04Q300.99-19.04 300.99-9.96L300.99-9.96Q300.99-1.32 305.92-1.32L305.92-1.32Q307.68-1.32 309.07-3.05 310.47-4.79 310.47-6.4Z" opacity="1" transform="matrix(1,0,0,1,0,0)" fill="#3e2c9a" class="wordmark-text-0" data-fill-palette-color="primary" id="text-0"></path></svg></g></svg></g></svg></g></svg></g></svg></g></svg></g></svg></g></svg></g><defs></defs></svg><rect width="375.07953" height="124.99657000000003" fill="none" stroke="none" visibility="hidden"></rect></g></svg></g></svg>